<svg width="10" height="15" viewBox="0 0 10 15" fill="none" xmlns="http://www.w3.org/2000/svg">
<path d="M9.52344 7.50197C9.52344 7.85834 9.38012 8.19207 9.13969 8.44923L3.27748 14.3639C3.01058 14.6186 2.66647 14.75 2.34189 14.75C2.00302 14.75 1.67414 14.6195 1.4064 14.364C0.895042 13.8456 0.895785 12.9941 1.40863 12.4767L1.40892 12.4764L6.14946 7.67767L6.32303 7.50197L6.14946 7.32628L1.40892 2.52754L1.40863 2.52725C0.895041 2.00907 0.895041 1.15589 1.40863 0.637708C1.92099 0.120764 2.76278 0.120764 3.27515 0.637708L9.14216 6.5572C9.39109 6.80836 9.52344 7.13889 9.52344 7.50197Z" fill="white" stroke="#583BEC" stroke-width="0.5"/>
</svg>
