<svg width="26" height="25" viewBox="0 0 26 25" fill="none" xmlns="http://www.w3.org/2000/svg">
<path d="M22.5675 2.70506L23.1867 3.30045C23.6678 3.76298 23.6678 4.5109 23.1867 4.96851L21.6976 6.4053L19.3385 4.13694L20.8276 2.70506C21.3087 2.24253 22.0865 2.24253 22.5624 2.70506H22.5675ZM10.7362 12.4133L17.6037 5.805L19.9628 8.07337L13.0902 14.6767C12.9418 14.8194 12.7576 14.9227 12.558 14.9769L9.56433 15.7986L10.4189 12.9201C10.4752 12.7282 10.5827 12.5511 10.7311 12.4084L10.7362 12.4133ZM19.0928 1.037L8.99631 10.7403C8.5511 11.1684 8.22871 11.6949 8.05983 12.2706L6.59627 17.1911C6.47345 17.6044 6.59115 18.0473 6.90843 18.3524C7.2257 18.6574 7.68627 18.7706 8.11612 18.6525L13.2335 17.2452C13.8373 17.0779 14.3849 16.7679 14.825 16.3448L24.9215 6.64149C26.3595 5.25882 26.3595 3.01506 24.9215 1.63239L24.3023 1.037C22.8643 -0.345667 20.5308 -0.345667 19.0928 1.037ZM4.50327 2.95601C2.01624 2.95601 0 4.8947 0 7.28608V20.6699C0 23.0613 2.01624 25 4.50327 25H18.4225C20.9095 25 22.9257 23.0613 22.9257 20.6699V15.1589C22.9257 14.5045 22.3782 13.978 21.6976 13.978C21.017 13.978 20.4694 14.5045 20.4694 15.1589V20.6699C20.4694 21.7574 19.5534 22.6381 18.4225 22.6381H4.50327C3.37234 22.6381 2.45633 21.7574 2.45633 20.6699V7.28608C2.45633 6.19864 3.37234 5.31787 4.50327 5.31787H10.2347C10.9153 5.31787 11.4629 4.79137 11.4629 4.13694C11.4629 3.48251 10.9153 2.95601 10.2347 2.95601H4.50327Z" fill="#4BCD3E"/>
</svg>
