<svg width="21" height="22" viewBox="0 0 21 22" fill="none" xmlns="http://www.w3.org/2000/svg">
<path d="M0.749976 11.7289L0.749976 11.9789L0.999976 11.9789L1.03182 11.9789L1.06367 11.9789L1.09551 11.9789L1.12735 11.9789L1.15919 11.9789L1.19102 11.9789L1.22286 11.9789L1.25469 11.9789L1.28652 11.9789L1.31835 11.9789L1.35018 11.9789L1.38201 11.9789L1.41383 11.9789L1.44565 11.9789L1.47748 11.9789L1.50929 11.9789L1.54111 11.9789L1.57293 11.9789L1.60474 11.9789L1.63655 11.9789L1.66836 11.9789L1.70018 11.9789L1.73198 11.9789L1.76379 11.9789L1.79559 11.9789L1.8274 11.9789L1.8592 11.9789L1.891 11.9789L1.9228 11.9789L1.95459 11.9789L1.98639 11.9789L2.01819 11.9789L2.04998 11.9789L2.08177 11.9789L2.11356 11.9789L2.14535 11.9789L2.17713 11.9789L2.20892 11.9789L2.2407 11.9789L2.27249 11.9789L2.30427 11.9789L2.33605 11.9789L2.36783 11.9789L2.39961 11.9789L2.43138 11.9789L2.46316 11.9789L2.49493 11.9789L2.5267 11.9789L2.55847 11.9789L2.59025 11.9789L2.62201 11.9789L2.65378 11.9789L2.68555 11.9789L2.71731 11.9789L2.74908 11.9789L2.78084 11.9789L2.8126 11.9789L2.84436 11.9789L2.87612 11.9789L2.90788 11.9789L2.93964 11.9789L2.9714 11.9789L3.00315 11.9789L3.03491 11.9789L3.06666 11.9789L3.09841 11.9789L3.13016 11.9789L3.16191 11.9789L3.19366 11.9789L3.22541 11.9789L3.25716 11.9789L3.2889 11.9789L3.32065 11.9789L3.35239 11.9789L3.38414 11.9789L3.41588 11.9789L3.44762 11.9789L3.47936 11.9789L3.5111 11.9789L3.54284 11.9789L3.57458 11.9789L3.60632 11.9789L3.63806 11.9789L3.66979 11.9789L3.70153 11.9789L3.73326 11.9789L3.765 11.9789L3.79673 11.9789L3.82846 11.9789L3.8602 11.9789L3.89193 11.9789L3.92366 11.9789L3.95539 11.9789L3.98712 11.9789L4.01884 11.9789L4.05057 11.9789L4.0823 11.9789L4.11403 11.9789L4.14575 11.9789L4.17748 11.9789L4.2092 11.9789L4.24093 11.9789L4.27265 11.9789L4.30438 11.9789L4.3361 11.9789L4.36782 11.9789L4.39954 11.9789L4.43127 11.9789L4.46299 11.9789L4.49471 11.9789L4.52643 11.9789L4.55815 11.9789L4.58987 11.9789L4.62159 11.9789L4.6533 11.9789L4.68502 11.9789L4.71674 11.9789L4.74846 11.9789L4.78018 11.9789L4.81189 11.9789L4.84361 11.9789L4.87533 11.9789L4.90704 11.9789L4.93876 11.9789L4.97047 11.9789L5.00219 11.9789L5.03391 11.9789L5.06562 11.9789L5.09734 11.9789L5.12905 11.9789L5.16076 11.9789L5.19248 11.9789L5.22419 11.9789L5.25591 11.9789L5.28762 11.9789L5.31934 11.9789L5.35105 11.9789L5.38276 11.9789L5.41448 11.9789L5.44619 11.9789L5.47791 11.9789L5.50962 11.9789L5.54133 11.9789L5.57305 11.9789L5.60476 11.9789L5.63648 11.9789L5.66819 11.9789L5.6999 11.9789L5.73162 11.9789L5.76333 11.9789L5.79505 11.9789L5.82676 11.9789L5.85848 11.9789L5.89019 11.9789L5.92191 11.9789L5.95362 11.9789L5.98534 11.9789L6.01705 11.9789L6.04877 11.9789L6.08048 11.9789L6.1122 11.9789L6.14392 11.9789L6.17563 11.9789L6.20735 11.9789L6.23907 11.9789L6.27079 11.9789L6.3025 11.9789L6.33422 11.9789L6.36594 11.9789L6.39766 11.9789L6.42938 11.9789L6.4611 11.9789L6.49282 11.9789L6.52454 11.9789L6.55626 11.9789L6.58798 11.9789L6.61971 11.9789L6.65143 11.9789L6.68315 11.9789L6.71487 11.9789L6.7466 11.9789L6.77832 11.9789L6.81005 11.9789L6.84177 11.9789L6.8735 11.9789L6.90523 11.9789L6.93695 11.9789L6.96868 11.9789L7.00041 11.9789L7.03214 11.9789L7.06387 11.9789L7.0956 11.9789L7.12733 11.9789L7.15906 11.9789L7.1908 11.9789L7.22253 11.9789L7.25426 11.9789L7.286 11.9789L7.31773 11.9789L7.34947 11.9789L7.3812 11.9789L7.41294 11.9789L7.44468 11.9789L7.47642 11.9789L7.50816 11.9789L7.5399 11.9789L7.57164 11.9789L7.60339 11.9789L7.63513 11.9789L7.66688 11.9789L7.69862 11.9789L7.73037 11.9789L7.76211 11.9789L7.79386 11.9789L7.82561 11.9789L7.85736 11.9789L7.88911 11.9789L7.92086 11.9789L7.95262 11.9789L7.98437 11.9789L8.01613 11.9789L8.04788 11.9789L8.07964 11.9789L8.1114 11.9789L8.14316 11.9789L8.17492 11.9789L8.20668 11.9789L8.23844 11.9789L8.27021 11.9789L8.30197 11.9789L8.33374 11.9789L8.36551 11.9789L8.39728 11.9789L8.42905 11.9789L8.46082 11.9789L8.49259 11.9789L8.52436 11.9789L8.55614 11.9789L8.58791 11.9789L8.61969 11.9789L8.65147 11.9789L8.68325 11.9789L8.71503 11.9789L8.74682 11.9789L8.7786 11.9789L8.81038 11.9789L8.84217 11.9789L8.87396 11.9789L8.90575 11.9789L8.93754 11.9789L8.96933 11.9789L9.00113 11.9789L9.03292 11.9789L9.06472 11.9789L9.09652 11.9789L9.12832 11.9789L9.16012 11.9789L9.19192 11.9789L9.22373 11.9789L9.25553 11.9789L9.28734 11.9789L9.31915 11.9789L9.35096 11.9789L9.38278 11.9789L9.41459 11.9789L9.4464 11.9789L9.47822 11.9789L9.51004 11.9789L9.54186 11.9789L9.57368 11.9789L9.60551 11.9789L9.63733 11.9789L9.66916 11.9789L9.70099 11.9789L9.73282 11.9789L9.76466 11.9789L9.79649 11.9789L9.82833 11.9789L9.86016 11.9789L9.89201 11.9789L9.92385 11.9789L9.95569 11.9789L9.98754 11.9789L10.0194 11.9789L10.0512 11.9789L10.0831 11.9789L10.1149 11.9789L10.1468 11.9789L10.1787 11.9789L10.2105 11.9789L10.2424 11.9789L10.2742 11.9789L10.3061 11.9789L10.338 11.9789L10.3698 11.9789L10.4017 11.9789L10.4336 11.9789L10.4655 11.9789L10.4973 11.9789L10.5292 11.9789L10.5611 11.9789L10.593 11.9789L10.6249 11.9789L10.6567 11.9789L10.6886 11.9789L10.7205 11.9789L10.7524 11.9789L10.7843 11.9789L10.8162 11.9789L10.8481 11.9789L10.88 11.9789L10.9119 11.9789L10.9438 11.9789L10.9757 11.9789L11.0077 11.9789L11.0396 11.9789L11.0715 11.9789L11.1034 11.9789L11.1353 11.9789L11.1673 11.9789L11.1992 11.9789L11.2311 11.9789L11.263 11.9789L11.295 11.9789L11.3269 11.9789L11.3589 11.9789L11.3908 11.9789L11.4227 11.9789L11.4547 11.9789L11.4866 11.9789L11.5186 11.9789L11.5505 11.9789L11.5825 11.9789L11.6144 11.9789L11.6464 11.9789L11.6784 11.9789L11.7103 11.9789L11.7423 11.9789L11.7743 11.9789L11.8062 11.9789L11.8382 11.9789L11.8702 11.9789L11.9022 11.9789L11.9342 11.9789L11.9662 11.9789L11.9981 11.9789L12.0301 11.9789L12.0621 11.9789L12.0941 11.9789L12.1261 11.9789L12.1581 11.9789L12.1901 11.9789L12.2222 11.9789L12.2542 11.9789L12.2862 11.9789L12.3182 11.9789L12.3502 11.9789L12.3822 11.9789L12.4143 11.9789L12.4463 11.9789L12.4783 11.9789L12.5104 11.9789L12.5424 11.9789L12.5744 11.9789L12.6065 11.9789L12.6385 11.9789L12.6706 11.9789L12.7026 11.9789L12.7347 11.9789L12.7667 11.9789L12.7988 11.9789L12.8309 11.9789L12.8629 11.9789L12.895 11.9789L12.9271 11.9789L12.9592 11.9789L12.9912 11.9789L13.0233 11.9789L13.0554 11.9789L13.0875 11.9789L13.1196 11.9789L13.1517 11.9789L13.1838 11.9789L13.2159 11.9789L13.248 11.9789L13.2801 11.9789L13.3122 11.9789L13.3443 11.9789L13.3764 11.9789L13.4086 11.9789L13.4407 11.9789L13.4728 11.9789L13.505 11.9789L13.5371 11.9789L13.5692 11.9789L13.6014 11.9789L13.6335 11.9789L13.6657 11.9789L13.6978 11.9789L13.73 11.9789L13.7621 11.9789L13.7943 11.9789L13.8265 11.9789L13.8586 11.9789L13.8908 11.9789L13.923 11.9789L13.9552 11.9789L13.9873 11.9789L14.0195 11.9789L14.0517 11.9789L14.0839 11.9789L14.1161 11.9789L14.1483 11.9789L14.1805 11.9789L14.2127 11.9789L14.2449 11.9789L14.2771 11.9789L14.3094 11.9789L14.3416 11.9789L14.3738 11.9789L14.406 11.9789L14.4383 11.9789L14.4705 11.9789L14.5028 11.9789L14.535 11.9789L14.5672 11.9789L14.5995 11.9789L14.6318 11.9789L14.664 11.9789L14.6963 11.9789L14.7285 11.9789L14.7608 11.9789L14.7931 11.9789L14.8254 11.9789L14.8577 11.9789L14.8899 11.9789L14.9222 11.9789L14.9545 11.9789L14.9868 11.9789L15.0191 11.9789L15.0514 11.9789L15.0837 11.9789L15.1161 11.9789L15.1484 11.9789L15.1807 11.9789L15.213 11.9789L15.2454 11.9789L15.2777 11.9789L15.31 11.9789L15.3424 11.9789L15.3747 11.9789L15.4071 11.9789L15.4394 11.9789L15.4718 11.9789L15.5042 11.9789L15.5365 11.9789L15.5689 11.9789L15.6013 11.9789L15.6336 11.9789L15.666 11.9789L15.6984 11.9789L15.7308 11.9789L15.7632 11.9789L15.7956 11.9789L15.828 11.9789L15.8604 11.9789L15.8928 11.9789L15.9253 11.9789L15.9577 11.9789L15.9901 11.9789L16.0225 11.9789L16.055 11.9789L16.0874 11.9789L16.1199 11.9789L16.1523 11.9789L16.1848 11.9789L16.2172 11.9789L16.2497 11.9789L16.2822 11.9789L16.3146 11.9789L16.3471 11.9789L16.3796 11.9789L16.4121 11.9789L16.4446 11.9789L16.477 11.9789L16.5095 11.9789L16.542 11.9789L16.5746 11.9789L16.6071 11.9789L16.6396 11.9789L16.6721 11.9789L16.7046 11.9789L16.7372 11.9789L16.7652 11.9789C14.1706 14.6525 11.7013 17.1971 9.28402 19.6882L9.12461 19.8524L9.27424 20.0257C9.62313 20.4296 9.9197 20.7743 10.2268 21.1317L10.4002 21.3334L10.5908 21.1479C10.6398 21.1002 10.6868 21.055 10.7321 21.0114C10.8302 20.9172 10.9202 20.8306 11.0059 20.7424L11.0062 20.7421C13.8512 17.8053 16.6962 14.8667 19.5394 11.928C19.7057 11.7564 19.8426 11.5983 19.9382 11.445C20.0353 11.2891 20.098 11.1252 20.0977 10.9457C20.0974 10.7664 20.0342 10.6025 19.9366 10.4464C19.8405 10.2929 19.7032 10.1343 19.536 9.96177C18.824 9.22633 18.1121 8.49088 17.4002 7.75545C15.2676 5.55235 13.1352 3.34942 11.0009 1.14752L10.9995 1.14614C10.891 1.03591 10.7688 0.929875 10.6918 0.862996C10.6686 0.842877 10.6495 0.826302 10.6361 0.814221L10.4724 0.666806L10.3055 0.810662L10.2072 0.895486C9.8586 1.19602 9.53596 1.47421 9.12717 1.82753L8.92699 2.00054L9.11106 2.1906C11.6312 4.79268 14.0917 7.3317 16.6191 9.93954L16.6041 9.93954L16.5723 9.93954L16.5405 9.93954L16.5086 9.93954L16.4768 9.93954L16.4449 9.93954L16.4131 9.93954L16.3812 9.93954L16.3494 9.93954L16.3176 9.93954L16.2857 9.93954L16.2539 9.93954L16.2221 9.93954L16.1903 9.93954L16.1584 9.93955L16.1266 9.93955L16.0948 9.93955L16.0629 9.93955L16.0311 9.93955L15.9993 9.93955L15.9675 9.93955L15.9357 9.93955L15.9039 9.93955L15.872 9.93955L15.8402 9.93955L15.8084 9.93955L15.7766 9.93955L15.7448 9.93955L15.713 9.93955L15.6812 9.93955L15.6494 9.93955L15.6176 9.93955L15.5858 9.93955L15.554 9.93955L15.5222 9.93955L15.4904 9.93955L15.4586 9.93955L15.4268 9.93955L15.395 9.93955L15.3632 9.93955L15.3314 9.93955L15.2996 9.93955L15.2678 9.93955L15.236 9.93955L15.2042 9.93955L15.1725 9.93955L15.1407 9.93955L15.1089 9.93955L15.0771 9.93955L15.0453 9.93955L15.0136 9.93955L14.9818 9.93955L14.95 9.93955L14.9182 9.93955L14.8865 9.93955L14.8547 9.93955L14.8229 9.93955L14.7911 9.93955L14.7594 9.93955L14.7276 9.93955L14.6958 9.93955L14.6641 9.93955L14.6323 9.93955L14.6006 9.93955L14.5688 9.93955L14.537 9.93955L14.5053 9.93955L14.4735 9.93955L14.4418 9.93955L14.41 9.93955L14.3783 9.93955L14.3465 9.93955L14.3148 9.93955L14.283 9.93955L14.2513 9.93955L14.2195 9.93955L14.1878 9.93955L14.156 9.93955L14.1243 9.93955L14.0925 9.93955L14.0608 9.93955L14.0291 9.93955L13.9973 9.93955L13.9656 9.93955L13.9338 9.93955L13.9021 9.93955L13.8704 9.93955L13.8386 9.93955L13.8069 9.93955L13.7752 9.93955L13.7434 9.93955L13.7117 9.93955L13.68 9.93955L13.6483 9.93955L13.6165 9.93955L13.5848 9.93955L13.5531 9.93955L13.5214 9.93955L13.4896 9.93955L13.4579 9.93955L13.4262 9.93955L13.3945 9.93955L13.3628 9.93955L13.3311 9.93955L13.2993 9.93955L13.2676 9.93955L13.2359 9.93955L13.2042 9.93955L13.1725 9.93955L13.1408 9.93955L13.1091 9.93955L13.0774 9.93955L13.0457 9.93955L13.014 9.93955L12.9823 9.93955L12.9505 9.93955L12.9188 9.93955L12.8871 9.93955L12.8554 9.93955L12.8237 9.93955L12.792 9.93955L12.7604 9.93955L12.7287 9.93955L12.697 9.93955L12.6653 9.93955L12.6336 9.93955L12.6019 9.93955L12.5702 9.93955L12.5385 9.93955L12.5068 9.93955L12.4751 9.93955L12.4434 9.93955L12.4117 9.93955L12.3801 9.93955L12.3484 9.93955L12.3167 9.93955L12.285 9.93955L12.2533 9.93955L12.2216 9.93955L12.19 9.93955L12.1583 9.93955L12.1266 9.93955L12.0949 9.93955L12.0633 9.93955L12.0316 9.93955L11.9999 9.93955L11.9682 9.93955L11.9366 9.93955L11.9049 9.93955L11.8732 9.93955L11.8415 9.93955L11.8099 9.93955L11.7782 9.93955L11.7465 9.93955L11.7149 9.93955L11.6832 9.93955L11.6515 9.93955L11.6199 9.93955L11.5882 9.93955L11.5566 9.93955L11.5249 9.93955L11.4932 9.93955L11.4616 9.93955L11.4299 9.93955L11.3983 9.93955L11.3666 9.93955L11.3349 9.93955L11.3033 9.93955L11.2716 9.93955L11.24 9.93955L11.2083 9.93955L11.1767 9.93955L11.145 9.93955L11.1134 9.93955L11.0817 9.93955L11.0501 9.93955L11.0184 9.93955L10.9868 9.93955L10.9551 9.93955L10.9235 9.93955L10.8918 9.93955L10.8602 9.93955L10.8285 9.93955L10.7969 9.93955L10.7652 9.93955L10.7336 9.93955L10.702 9.93955L10.6703 9.93955L10.6387 9.93955L10.607 9.93955L10.5754 9.93955L10.5438 9.93955L10.5121 9.93955L10.4805 9.93955L10.4488 9.93955L10.4172 9.93955L10.3856 9.93955L10.3539 9.93955L10.3223 9.93955L10.2907 9.93955L10.259 9.93955L10.2274 9.93955L10.1958 9.93955L10.1641 9.93955L10.1325 9.93955L10.1009 9.93955L10.0693 9.93955L10.0376 9.93955L10.006 9.93955L9.97438 9.93955L9.94275 9.93955L9.91112 9.93955L9.8795 9.93955L9.84787 9.93955L9.81625 9.93955L9.78463 9.93955L9.753 9.93955L9.72138 9.93955L9.68976 9.93955L9.65814 9.93955L9.62652 9.93955L9.5949 9.93955L9.56328 9.93955L9.53166 9.93955L9.50004 9.93955L9.46842 9.93955L9.4368 9.93955L9.40519 9.93955L9.37357 9.93955L9.34196 9.93955L9.31034 9.93955L9.27873 9.93955L9.24711 9.93955L9.2155 9.93955L9.18388 9.93955L9.15227 9.93955L9.12066 9.93955L9.08905 9.93955L9.05744 9.93955L9.02583 9.93955L8.99422 9.93955L8.96261 9.93955L8.931 9.93955L8.89939 9.93955L8.86778 9.93955L8.83617 9.93955L8.80456 9.93955L8.77295 9.93955L8.74135 9.93955L8.70974 9.93955L8.67814 9.93955L8.64653 9.93955L8.61493 9.93955L8.58332 9.93955L8.55172 9.93955L8.52011 9.93955L8.48851 9.93955L8.45691 9.93955L8.4253 9.93955L8.3937 9.93955L8.3621 9.93955L8.3305 9.93955L8.2989 9.93955L8.2673 9.93955L8.2357 9.93955L8.2041 9.93955L8.1725 9.93955L8.1409 9.93955L8.1093 9.93955L8.0777 9.93955L8.0461 9.93955L8.0145 9.93955L7.98291 9.93955L7.95131 9.93955L7.91971 9.93955L7.88811 9.93955L7.85652 9.93955L7.82492 9.93955L7.79333 9.93955L7.76173 9.93955L7.73014 9.93955L7.69854 9.93955L7.66695 9.93955L7.63535 9.93955L7.60376 9.93955L7.57216 9.93955L7.54057 9.93955L7.50898 9.93955L7.47738 9.93955L7.44579 9.93955L7.4142 9.93955L7.38261 9.93955L7.35102 9.93955L7.31942 9.93955L7.28783 9.93955L7.25624 9.93955L7.22465 9.93955L7.19306 9.93955L7.16147 9.93955L7.12988 9.93955L7.09829 9.93955L7.0667 9.93955L7.03511 9.93955L7.00352 9.93955L6.97193 9.93955L6.94034 9.93955L6.90875 9.93955L6.87716 9.93955L6.84557 9.93955L6.81399 9.93955L6.7824 9.93955L6.75081 9.93955L6.71922 9.93955L6.68763 9.93955L6.65605 9.93955L6.62446 9.93955L6.59287 9.93955L6.56128 9.93955L6.5297 9.93955L6.49811 9.93955L6.46652 9.93955L6.43494 9.93955L6.40335 9.93955L6.37176 9.93955L6.34018 9.93955L6.30859 9.93955L6.277 9.93955L6.24542 9.93955L6.21383 9.93955L6.18225 9.93955L6.15066 9.93955L6.11907 9.93955L6.08749 9.93955L6.0559 9.93955L6.02432 9.93955L5.99273 9.93955L5.96115 9.93955L5.92956 9.93955L5.89797 9.93955L5.86639 9.93955L5.8348 9.93955L5.80322 9.93955L5.77163 9.93955L5.74005 9.93955L5.70846 9.93955L5.67688 9.93955L5.64529 9.93955L5.61371 9.93955L5.58212 9.93955L5.55054 9.93955L5.51895 9.93955L5.48736 9.93955L5.45578 9.93955L5.42419 9.93955L5.39261 9.93955L5.36102 9.93955L5.32944 9.93955L5.29785 9.93955L5.26627 9.93955L5.23468 9.93955L5.2031 9.93955L5.17151 9.93955L5.13992 9.93955L5.10834 9.93955L5.07675 9.93955L5.04517 9.93955L5.01358 9.93955L4.98199 9.93955L4.95041 9.93955L4.91882 9.93955L4.88724 9.93955L4.85565 9.93955L4.82406 9.93955L4.79248 9.93955L4.76089 9.93955L4.7293 9.93955L4.69771 9.93955L4.66613 9.93955L4.63454 9.93955L4.60295 9.93955L4.57137 9.93955L4.53978 9.93955L4.50819 9.93955L4.4766 9.93955L4.44501 9.93955L4.41342 9.93955L4.38184 9.93955L4.35025 9.93955L4.31866 9.93955L4.28707 9.93955L4.25548 9.93955L4.22389 9.93955L4.1923 9.93955L4.16071 9.93955L4.12912 9.93955L4.09753 9.93955L4.06594 9.93955L4.03435 9.93955L4.00276 9.93955L3.97117 9.93955L3.93958 9.93955L3.90798 9.93955L3.87639 9.93955L3.8448 9.93955L3.81321 9.93955L3.78162 9.93955L3.75002 9.93955L3.71843 9.93955L3.68684 9.93955L3.65524 9.93955L3.62365 9.93955L3.59206 9.93955L3.56046 9.93955L3.52887 9.93955L3.49727 9.93955L3.46568 9.93955L3.43408 9.93955L3.40248 9.93955L3.37089 9.93955L3.33929 9.93955L3.30769 9.93955L3.2761 9.93955L3.2445 9.93955L3.2129 9.93955L3.1813 9.93955L3.1497 9.93955L3.11811 9.93955L3.08651 9.93955L3.05491 9.93955L3.02331 9.93955L2.99171 9.93955L2.96011 9.93955L2.92851 9.93955L2.8969 9.93955L2.8653 9.93955L2.8337 9.93955L2.8021 9.93955L2.7705 9.93955L2.73889 9.93955L2.70729 9.93955L2.67568 9.93955L2.64408 9.93955L2.61248 9.93955L2.58087 9.93955L2.54926 9.93955L2.51766 9.93955L2.48605 9.93955L2.45444 9.93955L2.42284 9.93955L2.39123 9.93955L2.35962 9.93955L2.32801 9.93955L2.2964 9.93955L2.26479 9.93955L2.23318 9.93955L2.20157 9.93955L2.16996 9.93955L2.13835 9.93955L2.10674 9.93955L2.07512 9.93955L2.04351 9.93955L2.0119 9.93955L1.98028 9.93955L1.94867 9.93955L1.91705 9.93955L1.88544 9.93955L1.85382 9.93955L1.82221 9.93955L1.79059 9.93955L1.75897 9.93955L1.72735 9.93955L1.69573 9.93955L1.66411 9.93955L1.63249 9.93955L1.60087 9.93955L1.56925 9.93955L1.53763 9.93955L1.50601 9.93955L1.47439 9.93955L1.44276 9.93955L1.41114 9.93955L1.37952 9.93955L1.34789 9.93955L1.31627 9.93955L1.28464 9.93955L1.25301 9.93955L1.22138 9.93955L1.18976 9.93955L1.15813 9.93955L1.1265 9.93955L1.09487 9.93955L1.06324 9.93955L1.03161 9.93955L0.999976 9.93955L0.749976 9.93955L0.749976 10.1895L0.749976 10.1927L0.749976 10.1959L0.749976 10.199L0.749976 10.2022L0.749976 10.2053L0.749976 10.2085L0.749976 10.2116L0.749976 10.2147L0.749976 10.2179L0.749976 10.221L0.749976 10.2241L0.749976 10.2273L0.749976 10.2304L0.749976 10.2335L0.749976 10.2367L0.749976 10.2398L0.749976 10.2429L0.749976 10.246L0.749976 10.2491L0.749976 10.2523L0.749976 10.2554L0.749976 10.2585L0.749976 10.2616L0.749976 10.2647L0.749976 10.2678L0.749976 10.2709L0.749976 10.274L0.749976 10.2771L0.749976 10.2802L0.749976 10.2833L0.749976 10.2864L0.749976 10.2895L0.749976 10.2926L0.749976 10.2957L0.749976 10.2988L0.749976 10.3019L0.749976 10.3049L0.749976 10.308L0.749976 10.3111L0.749976 10.3142L0.749976 10.3172L0.749976 10.3203L0.749976 10.3234L0.749976 10.3265L0.749976 10.3295L0.749976 10.3326L0.749976 10.3357L0.749976 10.3387L0.749976 10.3418L0.749976 10.3448L0.749976 10.3479L0.749976 10.351L0.749976 10.354L0.749976 10.3571L0.749976 10.3601L0.749976 10.3632L0.749976 10.3662L0.749976 10.3693L0.749976 10.3723L0.749976 10.3753L0.749976 10.3784L0.749976 10.3814L0.749976 10.3845L0.749976 10.3875L0.749976 10.3905L0.749976 10.3936L0.749976 10.3966L0.749976 10.3996L0.749976 10.4026L0.749976 10.4057L0.749976 10.4087L0.749976 10.4117L0.749976 10.4147L0.749976 10.4178L0.749976 10.4208L0.749976 10.4238L0.749976 10.4268L0.749976 10.4298L0.749976 10.4328L0.749976 10.4359L0.749976 10.4389L0.749976 10.4419L0.749976 10.4449L0.749976 10.4479L0.749976 10.4509L0.749976 10.4539L0.749976 10.4569L0.749976 10.4599L0.749976 10.4629L0.749976 10.4659L0.749976 10.4689L0.749976 10.4719L0.749976 10.4749L0.749976 10.4779L0.749976 10.4809L0.749976 10.4838L0.749976 10.4868L0.749976 10.4898L0.749976 10.4928L0.749976 10.4958L0.749976 10.4988L0.749976 10.5017L0.749976 10.5047L0.749976 10.5077L0.749976 10.5107L0.749976 10.5137L0.749976 10.5166L0.749976 10.5196L0.749976 10.5226L0.749976 10.5256L0.749976 10.5285L0.749976 10.5315L0.749976 10.5345L0.749976 10.5374L0.749976 10.5404L0.749976 10.5434L0.749976 10.5463L0.749976 10.5493L0.749976 10.5522L0.749976 10.5552L0.749976 10.5582L0.749976 10.5611L0.749976 10.5641L0.749976 10.567L0.749976 10.57L0.749976 10.5729L0.749976 10.5759L0.749976 10.5789L0.749976 10.5818L0.749976 10.5848L0.749976 10.5877L0.749976 10.5907L0.749976 10.5936L0.749976 10.5965L0.749976 10.5995L0.749976 10.6024L0.749976 10.6054L0.749976 10.6083L0.749976 10.6113L0.749976 10.6142L0.749976 10.6171L0.749976 10.6201L0.749976 10.623L0.749976 10.626L0.749976 10.6289L0.749976 10.6318L0.749976 10.6348L0.749976 10.6377L0.749976 10.6406L0.749976 10.6436L0.749976 10.6465L0.749976 10.6494L0.749976 10.6524L0.749976 10.6553L0.749976 10.6582L0.749976 10.6611L0.749976 10.6641L0.749976 10.667L0.749976 10.6699L0.749976 10.6728L0.749976 10.6758L0.749976 10.6787L0.749976 10.6816L0.749976 10.6845L0.749976 10.6875L0.749976 10.6904L0.749976 10.6933L0.749976 10.6962L0.749976 10.6991L0.749976 10.7021L0.749976 10.705L0.749976 10.7079L0.749976 10.7108L0.749976 10.7137L0.749976 10.7166L0.749976 10.7196L0.749976 10.7225L0.749976 10.7254L0.749976 10.7283L0.749976 10.7312L0.749976 10.7341L0.749976 10.737L0.749976 10.7399L0.749976 10.7429L0.749976 10.7458L0.749976 10.7487L0.749976 10.7516L0.749976 10.7545L0.749976 10.7574L0.749976 10.7603L0.749976 10.7632L0.749976 10.7661L0.749976 10.769L0.749976 10.7719L0.749976 10.7748L0.749976 10.7778L0.749976 10.7807L0.749976 10.7836L0.749976 10.7865L0.749976 10.7894L0.749976 10.7923L0.749976 10.7952L0.749976 10.7981L0.749976 10.801L0.749976 10.8039L0.749976 10.8068L0.749976 10.8097L0.749976 10.8126L0.749976 10.8155L0.749976 10.8184L0.749976 10.8213L0.749976 10.8242L0.749976 10.8271L0.749976 10.83L0.749976 10.8329L0.749976 10.8358L0.749976 10.8387L0.749976 10.8416L0.749976 10.8445L0.749976 10.8474L0.749976 10.8503L0.749976 10.8532L0.749976 10.8561L0.749976 10.859L0.749976 10.8619L0.749976 10.8648L0.749976 10.8677L0.749976 10.8706L0.749976 10.8735L0.749976 10.8764L0.749976 10.8793L0.749976 10.8822L0.749976 10.8851L0.749976 10.888L0.749976 10.8909L0.749976 10.8938L0.749976 10.8967L0.749976 10.8996L0.749976 10.9025L0.749976 10.9054L0.749976 10.9083L0.749976 10.9112L0.749976 10.9141L0.749976 10.917L0.749976 10.9199L0.749976 10.9228L0.749976 10.9257L0.749976 10.9286L0.749976 10.9315L0.749976 10.9344L0.749976 10.9373L0.749976 10.9402L0.749976 10.9431L0.749976 10.946L0.749976 10.9489L0.749976 10.9518L0.749976 10.9547L0.749976 10.9576L0.749976 10.9605L0.749976 10.9634L0.749976 10.9663L0.749976 10.9692L0.749976 10.9721L0.749976 10.9751L0.749976 10.978L0.749976 10.9809L0.749976 10.9838L0.749976 10.9867L0.749976 10.9896L0.749976 10.9925L0.749976 10.9954L0.749976 10.9983L0.749976 11.0012L0.749976 11.0041L0.749976 11.007L0.749976 11.0099L0.749976 11.0128L0.749976 11.0157L0.749976 11.0187L0.749976 11.0216L0.749976 11.0245L0.749976 11.0274L0.749976 11.0303L0.749976 11.0332L0.749976 11.0361L0.749976 11.039L0.749976 11.0419L0.749976 11.0449L0.749976 11.0478L0.749976 11.0507L0.749976 11.0536L0.749976 11.0565L0.749976 11.0594L0.749976 11.0624L0.749976 11.0653L0.749976 11.0682L0.749976 11.0711L0.749976 11.074L0.749976 11.077L0.749976 11.0799L0.749976 11.0828L0.749976 11.0857L0.749976 11.0886L0.749976 11.0916L0.749976 11.0945L0.749976 11.0974L0.749976 11.1003L0.749976 11.1033L0.749976 11.1062L0.749976 11.1091L0.749976 11.1121L0.749976 11.115L0.749976 11.1179L0.749976 11.1208L0.749976 11.1238L0.749976 11.1267L0.749976 11.1296L0.749976 11.1326L0.749976 11.1355L0.749976 11.1384L0.749976 11.1414L0.749976 11.1443L0.749976 11.1473L0.749976 11.1502L0.749976 11.1531L0.749976 11.1561L0.749976 11.159L0.749976 11.162L0.749976 11.1649L0.749976 11.1679L0.749976 11.1708L0.749976 11.1737L0.749976 11.1767L0.749976 11.1796L0.749976 11.1826L0.749976 11.1855L0.749976 11.1885L0.749976 11.1914L0.749976 11.1944L0.749976 11.1974L0.749976 11.2003L0.749976 11.2033L0.749976 11.2062L0.749976 11.2092L0.749976 11.2121L0.749976 11.2151L0.749976 11.2181L0.749976 11.221L0.749976 11.224L0.749976 11.227L0.749976 11.2299L0.749976 11.2329L0.749976 11.2359L0.749976 11.2388L0.749976 11.2418L0.749976 11.2448L0.749976 11.2477L0.749976 11.2507L0.749976 11.2537L0.749976 11.2567L0.749976 11.2596L0.749976 11.2626L0.749976 11.2656L0.749976 11.2686L0.749976 11.2716L0.749976 11.2746L0.749976 11.2775L0.749976 11.2805L0.749976 11.2835L0.749976 11.2865L0.749976 11.2895L0.749976 11.2925L0.749976 11.2955L0.749976 11.2985L0.749976 11.3015L0.749976 11.3045L0.749976 11.3075L0.749976 11.3105L0.749976 11.3135L0.749976 11.3165L0.749976 11.3195L0.749976 11.3225L0.749976 11.3255L0.749976 11.3285L0.749976 11.3315L0.749976 11.3345L0.749976 11.3375L0.749976 11.3406L0.749976 11.3436L0.749976 11.3466L0.749976 11.3496L0.749976 11.3526L0.749976 11.3556L0.749976 11.3587L0.749976 11.3617L0.749976 11.3647L0.749976 11.3677L0.749976 11.3708L0.749976 11.3738L0.749976 11.3768L0.749976 11.3799L0.749976 11.3829L0.749976 11.386L0.749976 11.389L0.749976 11.392L0.749976 11.3951L0.749976 11.3981L0.749976 11.4012L0.749976 11.4042L0.749976 11.4073L0.749976 11.4103L0.749976 11.4134L0.749976 11.4164L0.749976 11.4195L0.749976 11.4225L0.749976 11.4256L0.749976 11.4287L0.749976 11.4317L0.749976 11.4348L0.749976 11.4379L0.749976 11.4409L0.749976 11.444L0.749976 11.4471L0.749976 11.4501L0.749976 11.4532L0.749976 11.4563L0.749976 11.4594L0.749976 11.4625L0.749976 11.4655L0.749976 11.4686L0.749976 11.4717L0.749976 11.4748L0.749976 11.4779L0.749976 11.481L0.749976 11.4841L0.749976 11.4872L0.749976 11.4903L0.749976 11.4934L0.749976 11.4965L0.749976 11.4996L0.749976 11.5027L0.749976 11.5058L0.749976 11.5089L0.749976 11.512L0.749976 11.5151L0.749976 11.5183L0.749976 11.5214L0.749976 11.5245L0.749976 11.5276L0.749976 11.5307L0.749976 11.5339L0.749976 11.537L0.749976 11.5401L0.749976 11.5433L0.749976 11.5464L0.749976 11.5495L0.749976 11.5527L0.749976 11.5558L0.749976 11.559L0.749976 11.5621L0.749976 11.5653L0.749976 11.5684L0.749976 11.5716L0.749976 11.5747L0.749976 11.5779L0.749976 11.581L0.749976 11.5842L0.749976 11.5874L0.749976 11.5905L0.749976 11.5937L0.749976 11.5969L0.749976 11.6L0.749976 11.6032L0.749976 11.6064L0.749976 11.6096L0.749976 11.6127L0.749976 11.6159L0.749976 11.6191L0.749976 11.6223L0.749976 11.6255L0.749976 11.6287L0.749976 11.6319L0.749976 11.6351L0.749976 11.6383L0.749976 11.6415L0.749976 11.6447L0.749976 11.6479L0.749976 11.6511L0.749976 11.6543L0.749976 11.6575L0.749976 11.6608L0.749976 11.664L0.749976 11.6672L0.749976 11.6704L0.749976 11.6737L0.749976 11.6769L0.749976 11.6801L0.749976 11.6834L0.749976 11.6866L0.749976 11.6898L0.749976 11.6931L0.749976 11.6963L0.749976 11.6996L0.749976 11.7028L0.749976 11.7061L0.749976 11.7093L0.749976 11.7126L0.749976 11.7158L0.749976 11.7191L0.749976 11.7224L0.749976 11.7256L0.749976 11.7289Z" fill="white" stroke="white" stroke-width="0.5"/>
</svg>
