<svg width="21" height="22" viewBox="0 0 21 22" fill="none" xmlns="http://www.w3.org/2000/svg">
<path d="M20.0977 11.7289L20.0977 11.9789L19.8477 11.9789L19.8159 11.9789L19.7841 11.9789L19.7522 11.9789L19.7204 11.9789L19.6885 11.9789L19.6567 11.9789L19.6249 11.9789L19.593 11.9789L19.5612 11.9789L19.5294 11.9789L19.4975 11.9789L19.4657 11.9789L19.4339 11.9789L19.4021 11.9789L19.3702 11.9789L19.3384 11.9789L19.3066 11.9789L19.2748 11.9789L19.243 11.9789L19.2112 11.9789L19.1794 11.9789L19.1475 11.9789L19.1157 11.9789L19.0839 11.9789L19.0521 11.9789L19.0203 11.9789L18.9885 11.9789L18.9567 11.9789L18.9249 11.9789L18.8931 11.9789L18.8613 11.9789L18.8295 11.9789L18.7977 11.9789L18.7659 11.9789L18.7342 11.9789L18.7024 11.9789L18.6706 11.9789L18.6388 11.9789L18.607 11.9789L18.5752 11.9789L18.5434 11.9789L18.5117 11.9789L18.4799 11.9789L18.4481 11.9789L18.4163 11.9789L18.3846 11.9789L18.3528 11.9789L18.321 11.9789L18.2892 11.9789L18.2575 11.9789L18.2257 11.9789L18.1939 11.9789L18.1622 11.9789L18.1304 11.9789L18.0986 11.9789L18.0669 11.9789L18.0351 11.9789L18.0034 11.9789L17.9716 11.9789L17.9398 11.9789L17.9081 11.9789L17.8763 11.9789L17.8446 11.9789L17.8128 11.9789L17.7811 11.9789L17.7493 11.9789L17.7176 11.9789L17.6858 11.9789L17.6541 11.9789L17.6223 11.9789L17.5906 11.9789L17.5588 11.9789L17.5271 11.9789L17.4953 11.9789L17.4636 11.9789L17.4318 11.9789L17.4001 11.9789L17.3684 11.9789L17.3366 11.9789L17.3049 11.9789L17.2731 11.9789L17.2414 11.9789L17.2097 11.9789L17.1779 11.9789L17.1462 11.9789L17.1145 11.9789L17.0827 11.9789L17.051 11.9789L17.0193 11.9789L16.9875 11.9789L16.9558 11.9789L16.9241 11.9789L16.8923 11.9789L16.8606 11.9789L16.8289 11.9789L16.7971 11.9789L16.7654 11.9789L16.7337 11.9789L16.702 11.9789L16.6702 11.9789L16.6385 11.9789L16.6068 11.9789L16.5751 11.9789L16.5433 11.9789L16.5116 11.9789L16.4799 11.9789L16.4482 11.9789L16.4165 11.9789L16.3847 11.9789L16.353 11.9789L16.3213 11.9789L16.2896 11.9789L16.2579 11.9789L16.2261 11.9789L16.1944 11.9789L16.1627 11.9789L16.131 11.9789L16.0993 11.9789L16.0675 11.9789L16.0358 11.9789L16.0041 11.9789L15.9724 11.9789L15.9407 11.9789L15.909 11.9789L15.8772 11.9789L15.8455 11.9789L15.8138 11.9789L15.7821 11.9789L15.7504 11.9789L15.7187 11.9789L15.687 11.9789L15.6552 11.9789L15.6235 11.9789L15.5918 11.9789L15.5601 11.9789L15.5284 11.9789L15.4967 11.9789L15.465 11.9789L15.4332 11.9789L15.4015 11.9789L15.3698 11.9789L15.3381 11.9789L15.3064 11.9789L15.2747 11.9789L15.243 11.9789L15.2112 11.9789L15.1795 11.9789L15.1478 11.9789L15.1161 11.9789L15.0844 11.9789L15.0527 11.9789L15.021 11.9789L14.9892 11.9789L14.9575 11.9789L14.9258 11.9789L14.8941 11.9789L14.8624 11.9789L14.8307 11.9789L14.7989 11.9789L14.7672 11.9789L14.7355 11.9789L14.7038 11.9789L14.6721 11.9789L14.6404 11.9789L14.6086 11.9789L14.5769 11.9789L14.5452 11.9789L14.5135 11.9789L14.4818 11.9789L14.4501 11.9789L14.4183 11.9789L14.3866 11.9789L14.3549 11.9789L14.3232 11.9789L14.2915 11.9789L14.2597 11.9789L14.228 11.9789L14.1963 11.9789L14.1646 11.9789L14.1328 11.9789L14.1011 11.9789L14.0694 11.9789L14.0377 11.9789L14.0059 11.9789L13.9742 11.9789L13.9425 11.9789L13.9108 11.9789L13.879 11.9789L13.8473 11.9789L13.8156 11.9789L13.7838 11.9789L13.7521 11.9789L13.7204 11.9789L13.6887 11.9789L13.6569 11.9789L13.6252 11.9789L13.5935 11.9789L13.5617 11.9789L13.53 11.9789L13.4982 11.9789L13.4665 11.9789L13.4348 11.9789L13.403 11.9789L13.3713 11.9789L13.3396 11.9789L13.3078 11.9789L13.2761 11.9789L13.2443 11.9789L13.2126 11.9789L13.1808 11.9789L13.1491 11.9789L13.1174 11.9789L13.0856 11.9789L13.0539 11.9789L13.0221 11.9789L12.9904 11.9789L12.9586 11.9789L12.9269 11.9789L12.8951 11.9789L12.8633 11.9789L12.8316 11.9789L12.7998 11.9789L12.7681 11.9789L12.7363 11.9789L12.7046 11.9789L12.6728 11.9789L12.641 11.9789L12.6093 11.9789L12.5775 11.9789L12.5457 11.9789L12.514 11.9789L12.4822 11.9789L12.4504 11.9789L12.4187 11.9789L12.3869 11.9789L12.3551 11.9789L12.3234 11.9789L12.2916 11.9789L12.2598 11.9789L12.228 11.9789L12.1962 11.9789L12.1645 11.9789L12.1327 11.9789L12.1009 11.9789L12.0691 11.9789L12.0373 11.9789L12.0055 11.9789L11.9738 11.9789L11.942 11.9789L11.9102 11.9789L11.8784 11.9789L11.8466 11.9789L11.8148 11.9789L11.783 11.9789L11.7512 11.9789L11.7194 11.9789L11.6876 11.9789L11.6558 11.9789L11.624 11.9789L11.5922 11.9789L11.5604 11.9789L11.5286 11.9789L11.4968 11.9789L11.4649 11.9789L11.4331 11.9789L11.4013 11.9789L11.3695 11.9789L11.3377 11.9789L11.3059 11.9789L11.274 11.9789L11.2422 11.9789L11.2104 11.9789L11.1786 11.9789L11.1467 11.9789L11.1149 11.9789L11.0831 11.9789L11.0512 11.9789L11.0194 11.9789L10.9876 11.9789L10.9557 11.9789L10.9239 11.9789L10.892 11.9789L10.8602 11.9789L10.8283 11.9789L10.7965 11.9789L10.7646 11.9789L10.7328 11.9789L10.7009 11.9789L10.6691 11.9789L10.6372 11.9789L10.6053 11.9789L10.5735 11.9789L10.5416 11.9789L10.5098 11.9789L10.4779 11.9789L10.446 11.9789L10.4141 11.9789L10.3823 11.9789L10.3504 11.9789L10.3185 11.9789L10.2866 11.9789L10.2547 11.9789L10.2229 11.9789L10.191 11.9789L10.1591 11.9789L10.1272 11.9789L10.0953 11.9789L10.0634 11.9789L10.0315 11.9789L9.9996 11.9789L9.96769 11.9789L9.93579 11.9789L9.90388 11.9789L9.87197 11.9789L9.84006 11.9789L9.80814 11.9789L9.77622 11.9789L9.74431 11.9789L9.71238 11.9789L9.68046 11.9789L9.64853 11.9789L9.61661 11.9789L9.58467 11.9789L9.55274 11.9789L9.52081 11.9789L9.48887 11.9789L9.45693 11.9789L9.42498 11.9789L9.39304 11.9789L9.36109 11.9789L9.32914 11.9789L9.29718 11.9789L9.26523 11.9789L9.23327 11.9789L9.20131 11.9789L9.16935 11.9789L9.13738 11.9789L9.10541 11.9789L9.07344 11.9789L9.04147 11.9789L9.00949 11.9789L8.97751 11.9789L8.94553 11.9789L8.91355 11.9789L8.88156 11.9789L8.84957 11.9789L8.81758 11.9789L8.78558 11.9789L8.75358 11.9789L8.72158 11.9789L8.68958 11.9789L8.65757 11.9789L8.62556 11.9789L8.59355 11.9789L8.56154 11.9789L8.52952 11.9789L8.4975 11.9789L8.46548 11.9789L8.43345 11.9789L8.40142 11.9789L8.36939 11.9789L8.33736 11.9789L8.30532 11.9789L8.27328 11.9789L8.24123 11.9789L8.20919 11.9789L8.17714 11.9789L8.14509 11.9789L8.11303 11.9789L8.08097 11.9789L8.04891 11.9789L8.01685 11.9789L7.98478 11.9789L7.95271 11.9789L7.92063 11.9789L7.88856 11.9789L7.85648 11.9789L7.82439 11.9789L7.79231 11.9789L7.76022 11.9789L7.72812 11.9789L7.69603 11.9789L7.66393 11.9789L7.63183 11.9789L7.59972 11.9789L7.56761 11.9789L7.5355 11.9789L7.50339 11.9789L7.47127 11.9789L7.43915 11.9789L7.40702 11.9789L7.37489 11.9789L7.34276 11.9789L7.31063 11.9789L7.27849 11.9789L7.24635 11.9789L7.2142 11.9789L7.18205 11.9789L7.1499 11.9789L7.11775 11.9789L7.08559 11.9789L7.05343 11.9789L7.02126 11.9789L6.98909 11.9789L6.95692 11.9789L6.92474 11.9789L6.89256 11.9789L6.86038 11.9789L6.82819 11.9789L6.796 11.9789L6.76381 11.9789L6.73161 11.9789L6.69941 11.9789L6.66721 11.9789L6.635 11.9789L6.60279 11.9789L6.57057 11.9789L6.53835 11.9789L6.50613 11.9789L6.47391 11.9789L6.44168 11.9789L6.40944 11.9789L6.3772 11.9789L6.34496 11.9789L6.31272 11.9789L6.28047 11.9789L6.24822 11.9789L6.21596 11.9789L6.1837 11.9789L6.15144 11.9789L6.11917 11.9789L6.0869 11.9789L6.05462 11.9789L6.02234 11.9789L5.99006 11.9789L5.95777 11.9789L5.92548 11.9789L5.89319 11.9789L5.86089 11.9789L5.82859 11.9789L5.79628 11.9789L5.76397 11.9789L5.73166 11.9789L5.69934 11.9789L5.66701 11.9789L5.63469 11.9789L5.60236 11.9789L5.57002 11.9789L5.53768 11.9789L5.50534 11.9789L5.47299 11.9789L5.44064 11.9789L5.40829 11.9789L5.37593 11.9789L5.34357 11.9789L5.3112 11.9789L5.27883 11.9789L5.24645 11.9789L5.21407 11.9789L5.18169 11.9789L5.1493 11.9789L5.1169 11.9789L5.08451 11.9789L5.05211 11.9789L5.0197 11.9789L4.98729 11.9789L4.95488 11.9789L4.92246 11.9789L4.89003 11.9789L4.85761 11.9789L4.82518 11.9789L4.79274 11.9789L4.7603 11.9789L4.72785 11.9789L4.69541 11.9789L4.66295 11.9789L4.63049 11.9789L4.59803 11.9789L4.56556 11.9789L4.53309 11.9789L4.50062 11.9789L4.46814 11.9789L4.43565 11.9789L4.40316 11.9789L4.37067 11.9789L4.33817 11.9789L4.30567 11.9789L4.27316 11.9789L4.24065 11.9789L4.20813 11.9789L4.17561 11.9789L4.14308 11.9789L4.11055 11.9789L4.08255 11.9789C6.67711 14.6525 9.14639 17.1971 11.5637 19.6882L11.7231 19.8524L11.5735 20.0257C11.2246 20.4296 10.928 20.7743 10.6209 21.1317L10.4475 21.3334L10.2569 21.1479C10.2079 21.1002 10.1609 21.055 10.1156 21.0114C10.0176 20.9172 9.92753 20.8306 9.84183 20.7424L9.84156 20.7421C6.99656 17.8053 4.15156 14.8667 1.30831 11.928C1.14198 11.7564 1.00512 11.5983 0.909539 11.445C0.81237 11.2891 0.749671 11.1252 0.750002 10.9457C0.750333 10.7664 0.813561 10.6025 0.911149 10.4464C1.00719 10.2929 1.14457 10.1343 1.31172 9.96177C2.02372 9.22633 2.73563 8.49088 3.44751 7.75545C5.58009 5.55235 7.7125 3.34942 9.84684 1.14752L9.8482 1.14614C9.95672 1.03591 10.0789 0.929875 10.1559 0.862996C10.1791 0.842877 10.1982 0.826302 10.2116 0.814221L10.3753 0.666806L10.5422 0.810662L10.6406 0.895486C10.9891 1.19602 11.3118 1.47421 11.7206 1.82753L11.9207 2.00054L11.7367 2.1906C9.2165 4.79268 6.75603 7.3317 4.22862 9.93954L4.24357 9.93954L4.27542 9.93954L4.30726 9.93954L4.33911 9.93954L4.37095 9.93954L4.40279 9.93954L4.43463 9.93954L4.46647 9.93954L4.4983 9.93954L4.53014 9.93954L4.56197 9.93954L4.59381 9.93954L4.62564 9.93954L4.65747 9.93954L4.68929 9.93955L4.72112 9.93955L4.75295 9.93955L4.78477 9.93955L4.81659 9.93955L4.84841 9.93955L4.88023 9.93955L4.91205 9.93955L4.94386 9.93955L4.97568 9.93955L5.00749 9.93955L5.03931 9.93955L5.07112 9.93955L5.10293 9.93955L5.13473 9.93955L5.16654 9.93955L5.19834 9.93955L5.23015 9.93955L5.26195 9.93955L5.29375 9.93955L5.32555 9.93955L5.35735 9.93955L5.38915 9.93955L5.42094 9.93955L5.45274 9.93955L5.48453 9.93955L5.51632 9.93955L5.54811 9.93955L5.5799 9.93955L5.61169 9.93955L5.64347 9.93955L5.67526 9.93955L5.70704 9.93955L5.73882 9.93955L5.7706 9.93955L5.80238 9.93955L5.83416 9.93955L5.86594 9.93955L5.89771 9.93955L5.92949 9.93955L5.96126 9.93955L5.99303 9.93955L6.0248 9.93955L6.05657 9.93955L6.08834 9.93955L6.12011 9.93955L6.15187 9.93955L6.18364 9.93955L6.2154 9.93955L6.24716 9.93955L6.27892 9.93955L6.31068 9.93955L6.34244 9.93955L6.3742 9.93955L6.40595 9.93955L6.43771 9.93955L6.46946 9.93955L6.50121 9.93955L6.53296 9.93955L6.56471 9.93955L6.59646 9.93955L6.62821 9.93955L6.65995 9.93955L6.6917 9.93955L6.72344 9.93955L6.75519 9.93955L6.78693 9.93955L6.81867 9.93955L6.85041 9.93955L6.88214 9.93955L6.91388 9.93955L6.94562 9.93955L6.97735 9.93955L7.00908 9.93955L7.04081 9.93955L7.07255 9.93955L7.10428 9.93955L7.136 9.93955L7.16773 9.93955L7.19946 9.93955L7.23118 9.93955L7.26291 9.93955L7.29463 9.93955L7.32635 9.93955L7.35807 9.93955L7.38979 9.93955L7.42151 9.93955L7.45323 9.93955L7.48495 9.93955L7.51666 9.93955L7.54838 9.93955L7.58009 9.93955L7.6118 9.93955L7.64351 9.93955L7.67522 9.93955L7.70693 9.93955L7.73864 9.93955L7.77035 9.93955L7.80206 9.93955L7.83376 9.93955L7.86546 9.93955L7.89717 9.93955L7.92887 9.93955L7.96057 9.93955L7.99227 9.93955L8.02397 9.93955L8.05567 9.93955L8.08737 9.93955L8.11906 9.93955L8.15076 9.93955L8.18245 9.93955L8.21414 9.93955L8.24584 9.93955L8.27753 9.93955L8.30922 9.93955L8.34091 9.93955L8.37259 9.93955L8.40428 9.93955L8.43597 9.93955L8.46765 9.93955L8.49934 9.93955L8.53102 9.93955L8.56271 9.93955L8.59439 9.93955L8.62607 9.93955L8.65775 9.93955L8.68943 9.93955L8.72111 9.93955L8.75278 9.93955L8.78446 9.93955L8.81613 9.93955L8.84781 9.93955L8.87948 9.93955L8.91116 9.93955L8.94283 9.93955L8.9745 9.93955L9.00617 9.93955L9.03784 9.93955L9.06951 9.93955L9.10117 9.93955L9.13284 9.93955L9.16451 9.93955L9.19617 9.93955L9.22784 9.93955L9.2595 9.93955L9.29116 9.93955L9.32282 9.93955L9.35449 9.93955L9.38615 9.93955L9.41781 9.93955L9.44946 9.93955L9.48112 9.93955L9.51278 9.93955L9.54444 9.93955L9.57609 9.93955L9.60775 9.93955L9.6394 9.93955L9.67105 9.93955L9.7027 9.93955L9.73436 9.93955L9.76601 9.93955L9.79766 9.93955L9.82931 9.93955L9.86096 9.93955L9.8926 9.93955L9.92425 9.93955L9.9559 9.93955L9.98754 9.93955L10.0192 9.93955L10.0508 9.93955L10.0825 9.93955L10.1141 9.93955L10.1458 9.93955L10.1774 9.93955L10.209 9.93955L10.2407 9.93955L10.2723 9.93955L10.304 9.93955L10.3356 9.93955L10.3672 9.93955L10.3989 9.93955L10.4305 9.93955L10.4621 9.93955L10.4938 9.93955L10.5254 9.93955L10.557 9.93955L10.5887 9.93955L10.6203 9.93955L10.6519 9.93955L10.6836 9.93955L10.7152 9.93955L10.7468 9.93955L10.7785 9.93955L10.8101 9.93955L10.8417 9.93955L10.8733 9.93955L10.905 9.93955L10.9366 9.93955L10.9682 9.93955L10.9998 9.93955L11.0315 9.93955L11.0631 9.93955L11.0947 9.93955L11.1263 9.93955L11.158 9.93955L11.1896 9.93955L11.2212 9.93955L11.2528 9.93955L11.2844 9.93955L11.3161 9.93955L11.3477 9.93955L11.3793 9.93955L11.4109 9.93955L11.4425 9.93955L11.4741 9.93955L11.5058 9.93955L11.5374 9.93955L11.569 9.93955L11.6006 9.93955L11.6322 9.93955L11.6638 9.93955L11.6954 9.93955L11.7271 9.93955L11.7587 9.93955L11.7903 9.93955L11.8219 9.93955L11.8535 9.93955L11.8851 9.93955L11.9167 9.93955L11.9483 9.93955L11.9799 9.93955L12.0115 9.93955L12.0432 9.93955L12.0748 9.93955L12.1064 9.93955L12.138 9.93955L12.1696 9.93955L12.2012 9.93955L12.2328 9.93955L12.2644 9.93955L12.296 9.93955L12.3276 9.93955L12.3592 9.93955L12.3908 9.93955L12.4224 9.93955L12.454 9.93955L12.4856 9.93955L12.5172 9.93955L12.5488 9.93955L12.5804 9.93955L12.612 9.93955L12.6436 9.93955L12.6752 9.93955L12.7068 9.93955L12.7384 9.93955L12.77 9.93955L12.8016 9.93955L12.8332 9.93955L12.8648 9.93955L12.8964 9.93955L12.928 9.93955L12.9596 9.93955L12.9912 9.93955L13.0228 9.93955L13.0544 9.93955L13.086 9.93955L13.1176 9.93955L13.1492 9.93955L13.1808 9.93955L13.2124 9.93955L13.244 9.93955L13.2756 9.93955L13.3071 9.93955L13.3387 9.93955L13.3703 9.93955L13.4019 9.93955L13.4335 9.93955L13.4651 9.93955L13.4967 9.93955L13.5283 9.93955L13.5599 9.93955L13.5915 9.93955L13.6231 9.93955L13.6547 9.93955L13.6862 9.93955L13.7178 9.93955L13.7494 9.93955L13.781 9.93955L13.8126 9.93955L13.8442 9.93955L13.8758 9.93955L13.9074 9.93955L13.939 9.93955L13.9706 9.93955L14.0021 9.93955L14.0337 9.93955L14.0653 9.93955L14.0969 9.93955L14.1285 9.93955L14.1601 9.93955L14.1917 9.93955L14.2233 9.93955L14.2548 9.93955L14.2864 9.93955L14.318 9.93955L14.3496 9.93955L14.3812 9.93955L14.4128 9.93955L14.4444 9.93955L14.476 9.93955L14.5075 9.93955L14.5391 9.93955L14.5707 9.93955L14.6023 9.93955L14.6339 9.93955L14.6655 9.93955L14.6971 9.93955L14.7286 9.93955L14.7602 9.93955L14.7918 9.93955L14.8234 9.93955L14.855 9.93955L14.8866 9.93955L14.9182 9.93955L14.9497 9.93955L14.9813 9.93955L15.0129 9.93955L15.0445 9.93955L15.0761 9.93955L15.1077 9.93955L15.1393 9.93955L15.1708 9.93955L15.2024 9.93955L15.234 9.93955L15.2656 9.93955L15.2972 9.93955L15.3288 9.93955L15.3604 9.93955L15.3919 9.93955L15.4235 9.93955L15.4551 9.93955L15.4867 9.93955L15.5183 9.93955L15.5499 9.93955L15.5815 9.93955L15.613 9.93955L15.6446 9.93955L15.6762 9.93955L15.7078 9.93955L15.7394 9.93955L15.771 9.93955L15.8026 9.93955L15.8341 9.93955L15.8657 9.93955L15.8973 9.93955L15.9289 9.93955L15.9605 9.93955L15.9921 9.93955L16.0237 9.93955L16.0552 9.93955L16.0868 9.93955L16.1184 9.93955L16.15 9.93955L16.1816 9.93955L16.2132 9.93955L16.2448 9.93955L16.2764 9.93955L16.3079 9.93955L16.3395 9.93955L16.3711 9.93955L16.4027 9.93955L16.4343 9.93955L16.4659 9.93955L16.4975 9.93955L16.5291 9.93955L16.5606 9.93955L16.5922 9.93955L16.6238 9.93955L16.6554 9.93955L16.687 9.93955L16.7186 9.93955L16.7502 9.93955L16.7818 9.93955L16.8134 9.93955L16.845 9.93955L16.8765 9.93955L16.9081 9.93955L16.9397 9.93955L16.9713 9.93955L17.0029 9.93955L17.0345 9.93955L17.0661 9.93955L17.0977 9.93955L17.1293 9.93955L17.1609 9.93955L17.1925 9.93955L17.2241 9.93955L17.2557 9.93955L17.2873 9.93955L17.3189 9.93955L17.3504 9.93955L17.382 9.93955L17.4136 9.93955L17.4452 9.93955L17.4768 9.93955L17.5084 9.93955L17.54 9.93955L17.5716 9.93955L17.6032 9.93955L17.6348 9.93955L17.6664 9.93955L17.698 9.93955L17.7296 9.93955L17.7612 9.93955L17.7928 9.93955L17.8244 9.93955L17.856 9.93955L17.8876 9.93955L17.9192 9.93955L17.9508 9.93955L17.9824 9.93955L18.014 9.93955L18.0456 9.93955L18.0772 9.93955L18.1088 9.93955L18.1404 9.93955L18.172 9.93955L18.2036 9.93955L18.2352 9.93955L18.2668 9.93955L18.2985 9.93955L18.3301 9.93955L18.3617 9.93955L18.3933 9.93955L18.4249 9.93955L18.4565 9.93955L18.4881 9.93955L18.5197 9.93955L18.5513 9.93955L18.5829 9.93955L18.6145 9.93955L18.6461 9.93955L18.6778 9.93955L18.7094 9.93955L18.741 9.93955L18.7726 9.93955L18.8042 9.93955L18.8358 9.93955L18.8674 9.93955L18.899 9.93955L18.9307 9.93955L18.9623 9.93955L18.9939 9.93955L19.0255 9.93955L19.0571 9.93955L19.0887 9.93955L19.1204 9.93955L19.152 9.93955L19.1836 9.93955L19.2152 9.93955L19.2468 9.93955L19.2785 9.93955L19.3101 9.93955L19.3417 9.93955L19.3733 9.93955L19.405 9.93955L19.4366 9.93955L19.4682 9.93955L19.4998 9.93955L19.5315 9.93955L19.5631 9.93955L19.5947 9.93955L19.6263 9.93955L19.658 9.93955L19.6896 9.93955L19.7212 9.93955L19.7528 9.93955L19.7845 9.93955L19.8161 9.93955L19.8477 9.93955L20.0977 9.93955L20.0977 10.1895L20.0977 10.1927L20.0977 10.1959L20.0977 10.199L20.0977 10.2022L20.0977 10.2053L20.0977 10.2085L20.0977 10.2116L20.0977 10.2147L20.0977 10.2179L20.0977 10.221L20.0977 10.2241L20.0977 10.2273L20.0977 10.2304L20.0977 10.2335L20.0977 10.2367L20.0977 10.2398L20.0977 10.2429L20.0977 10.246L20.0977 10.2491L20.0977 10.2523L20.0977 10.2554L20.0977 10.2585L20.0977 10.2616L20.0977 10.2647L20.0977 10.2678L20.0977 10.2709L20.0977 10.274L20.0977 10.2771L20.0977 10.2802L20.0977 10.2833L20.0977 10.2864L20.0977 10.2895L20.0977 10.2926L20.0977 10.2957L20.0977 10.2988L20.0977 10.3019L20.0977 10.3049L20.0977 10.308L20.0977 10.3111L20.0977 10.3142L20.0977 10.3172L20.0977 10.3203L20.0977 10.3234L20.0977 10.3265L20.0977 10.3295L20.0977 10.3326L20.0977 10.3357L20.0977 10.3387L20.0977 10.3418L20.0977 10.3448L20.0977 10.3479L20.0977 10.351L20.0977 10.354L20.0977 10.3571L20.0977 10.3601L20.0977 10.3632L20.0977 10.3662L20.0977 10.3693L20.0977 10.3723L20.0977 10.3753L20.0977 10.3784L20.0977 10.3814L20.0977 10.3845L20.0977 10.3875L20.0977 10.3905L20.0977 10.3936L20.0977 10.3966L20.0977 10.3996L20.0977 10.4026L20.0977 10.4057L20.0977 10.4087L20.0977 10.4117L20.0977 10.4147L20.0977 10.4178L20.0977 10.4208L20.0977 10.4238L20.0977 10.4268L20.0977 10.4298L20.0977 10.4328L20.0977 10.4359L20.0977 10.4389L20.0977 10.4419L20.0977 10.4449L20.0977 10.4479L20.0977 10.4509L20.0977 10.4539L20.0977 10.4569L20.0977 10.4599L20.0977 10.4629L20.0977 10.4659L20.0977 10.4689L20.0977 10.4719L20.0977 10.4749L20.0977 10.4779L20.0977 10.4809L20.0977 10.4838L20.0977 10.4868L20.0977 10.4898L20.0977 10.4928L20.0977 10.4958L20.0977 10.4988L20.0977 10.5017L20.0977 10.5047L20.0977 10.5077L20.0977 10.5107L20.0977 10.5137L20.0977 10.5166L20.0977 10.5196L20.0977 10.5226L20.0977 10.5256L20.0977 10.5285L20.0977 10.5315L20.0977 10.5345L20.0977 10.5374L20.0977 10.5404L20.0977 10.5434L20.0977 10.5463L20.0977 10.5493L20.0977 10.5522L20.0977 10.5552L20.0977 10.5582L20.0977 10.5611L20.0977 10.5641L20.0977 10.567L20.0977 10.57L20.0977 10.5729L20.0977 10.5759L20.0977 10.5789L20.0977 10.5818L20.0977 10.5848L20.0977 10.5877L20.0977 10.5907L20.0977 10.5936L20.0977 10.5965L20.0977 10.5995L20.0977 10.6024L20.0977 10.6054L20.0977 10.6083L20.0977 10.6113L20.0977 10.6142L20.0977 10.6171L20.0977 10.6201L20.0977 10.623L20.0977 10.626L20.0977 10.6289L20.0977 10.6318L20.0977 10.6348L20.0977 10.6377L20.0977 10.6406L20.0977 10.6436L20.0977 10.6465L20.0977 10.6494L20.0977 10.6524L20.0977 10.6553L20.0977 10.6582L20.0977 10.6611L20.0977 10.6641L20.0977 10.667L20.0977 10.6699L20.0977 10.6728L20.0977 10.6758L20.0977 10.6787L20.0977 10.6816L20.0977 10.6845L20.0977 10.6875L20.0977 10.6904L20.0977 10.6933L20.0977 10.6962L20.0977 10.6991L20.0977 10.7021L20.0977 10.705L20.0977 10.7079L20.0977 10.7108L20.0977 10.7137L20.0977 10.7166L20.0977 10.7196L20.0977 10.7225L20.0977 10.7254L20.0977 10.7283L20.0977 10.7312L20.0977 10.7341L20.0977 10.737L20.0977 10.7399L20.0977 10.7429L20.0977 10.7458L20.0977 10.7487L20.0977 10.7516L20.0977 10.7545L20.0977 10.7574L20.0977 10.7603L20.0977 10.7632L20.0977 10.7661L20.0977 10.769L20.0977 10.7719L20.0977 10.7748L20.0977 10.7778L20.0977 10.7807L20.0977 10.7836L20.0977 10.7865L20.0977 10.7894L20.0977 10.7923L20.0977 10.7952L20.0977 10.7981L20.0977 10.801L20.0977 10.8039L20.0977 10.8068L20.0977 10.8097L20.0977 10.8126L20.0977 10.8155L20.0977 10.8184L20.0977 10.8213L20.0977 10.8242L20.0977 10.8271L20.0977 10.83L20.0977 10.8329L20.0977 10.8358L20.0977 10.8387L20.0977 10.8416L20.0977 10.8445L20.0977 10.8474L20.0977 10.8503L20.0977 10.8532L20.0977 10.8561L20.0977 10.859L20.0977 10.8619L20.0977 10.8648L20.0977 10.8677L20.0977 10.8706L20.0977 10.8735L20.0977 10.8764L20.0977 10.8793L20.0977 10.8822L20.0977 10.8851L20.0977 10.888L20.0977 10.8909L20.0977 10.8938L20.0977 10.8967L20.0977 10.8996L20.0977 10.9025L20.0977 10.9054L20.0977 10.9083L20.0977 10.9112L20.0977 10.9141L20.0977 10.917L20.0977 10.9199L20.0977 10.9228L20.0977 10.9257L20.0977 10.9286L20.0977 10.9315L20.0977 10.9344L20.0977 10.9373L20.0977 10.9402L20.0977 10.9431L20.0977 10.946L20.0977 10.9489L20.0977 10.9518L20.0977 10.9547L20.0977 10.9576L20.0977 10.9605L20.0977 10.9634L20.0977 10.9663L20.0977 10.9692L20.0977 10.9721L20.0977 10.9751L20.0977 10.978L20.0977 10.9809L20.0977 10.9838L20.0977 10.9867L20.0977 10.9896L20.0977 10.9925L20.0977 10.9954L20.0977 10.9983L20.0977 11.0012L20.0977 11.0041L20.0977 11.007L20.0977 11.0099L20.0977 11.0128L20.0977 11.0157L20.0977 11.0187L20.0977 11.0216L20.0977 11.0245L20.0977 11.0274L20.0977 11.0303L20.0977 11.0332L20.0977 11.0361L20.0977 11.039L20.0977 11.0419L20.0977 11.0449L20.0977 11.0478L20.0977 11.0507L20.0977 11.0536L20.0977 11.0565L20.0977 11.0594L20.0977 11.0624L20.0977 11.0653L20.0977 11.0682L20.0977 11.0711L20.0977 11.074L20.0977 11.077L20.0977 11.0799L20.0977 11.0828L20.0977 11.0857L20.0977 11.0886L20.0977 11.0916L20.0977 11.0945L20.0977 11.0974L20.0977 11.1003L20.0977 11.1033L20.0977 11.1062L20.0977 11.1091L20.0977 11.1121L20.0977 11.115L20.0977 11.1179L20.0977 11.1208L20.0977 11.1238L20.0977 11.1267L20.0977 11.1296L20.0977 11.1326L20.0977 11.1355L20.0977 11.1384L20.0977 11.1414L20.0977 11.1443L20.0977 11.1473L20.0977 11.1502L20.0977 11.1531L20.0977 11.1561L20.0977 11.159L20.0977 11.162L20.0977 11.1649L20.0977 11.1679L20.0977 11.1708L20.0977 11.1737L20.0977 11.1767L20.0977 11.1796L20.0977 11.1826L20.0977 11.1855L20.0977 11.1885L20.0977 11.1914L20.0977 11.1944L20.0977 11.1974L20.0977 11.2003L20.0977 11.2033L20.0977 11.2062L20.0977 11.2092L20.0977 11.2121L20.0977 11.2151L20.0977 11.2181L20.0977 11.221L20.0977 11.224L20.0977 11.227L20.0977 11.2299L20.0977 11.2329L20.0977 11.2359L20.0977 11.2388L20.0977 11.2418L20.0977 11.2448L20.0977 11.2477L20.0977 11.2507L20.0977 11.2537L20.0977 11.2567L20.0977 11.2596L20.0977 11.2626L20.0977 11.2656L20.0977 11.2686L20.0977 11.2716L20.0977 11.2746L20.0977 11.2775L20.0977 11.2805L20.0977 11.2835L20.0977 11.2865L20.0977 11.2895L20.0977 11.2925L20.0977 11.2955L20.0977 11.2985L20.0977 11.3015L20.0977 11.3045L20.0977 11.3075L20.0977 11.3105L20.0977 11.3135L20.0977 11.3165L20.0977 11.3195L20.0977 11.3225L20.0977 11.3255L20.0977 11.3285L20.0977 11.3315L20.0977 11.3345L20.0977 11.3375L20.0977 11.3406L20.0977 11.3436L20.0977 11.3466L20.0977 11.3496L20.0977 11.3526L20.0977 11.3556L20.0977 11.3587L20.0977 11.3617L20.0977 11.3647L20.0977 11.3677L20.0977 11.3708L20.0977 11.3738L20.0977 11.3768L20.0977 11.3799L20.0977 11.3829L20.0977 11.386L20.0977 11.389L20.0977 11.392L20.0977 11.3951L20.0977 11.3981L20.0977 11.4012L20.0977 11.4042L20.0977 11.4073L20.0977 11.4103L20.0977 11.4134L20.0977 11.4164L20.0977 11.4195L20.0977 11.4225L20.0977 11.4256L20.0977 11.4287L20.0977 11.4317L20.0977 11.4348L20.0977 11.4379L20.0977 11.4409L20.0977 11.444L20.0977 11.4471L20.0977 11.4501L20.0977 11.4532L20.0977 11.4563L20.0977 11.4594L20.0977 11.4625L20.0977 11.4655L20.0977 11.4686L20.0977 11.4717L20.0977 11.4748L20.0977 11.4779L20.0977 11.481L20.0977 11.4841L20.0977 11.4872L20.0977 11.4903L20.0977 11.4934L20.0977 11.4965L20.0977 11.4996L20.0977 11.5027L20.0977 11.5058L20.0977 11.5089L20.0977 11.512L20.0977 11.5151L20.0977 11.5183L20.0977 11.5214L20.0977 11.5245L20.0977 11.5276L20.0977 11.5307L20.0977 11.5339L20.0977 11.537L20.0977 11.5401L20.0977 11.5433L20.0977 11.5464L20.0977 11.5495L20.0977 11.5527L20.0977 11.5558L20.0977 11.559L20.0977 11.5621L20.0977 11.5653L20.0977 11.5684L20.0977 11.5716L20.0977 11.5747L20.0977 11.5779L20.0977 11.581L20.0977 11.5842L20.0977 11.5874L20.0977 11.5905L20.0977 11.5937L20.0977 11.5969L20.0977 11.6L20.0977 11.6032L20.0977 11.6064L20.0977 11.6096L20.0977 11.6127L20.0977 11.6159L20.0977 11.6191L20.0977 11.6223L20.0977 11.6255L20.0977 11.6287L20.0977 11.6319L20.0977 11.6351L20.0977 11.6383L20.0977 11.6415L20.0977 11.6447L20.0977 11.6479L20.0977 11.6511L20.0977 11.6543L20.0977 11.6575L20.0977 11.6608L20.0977 11.664L20.0977 11.6672L20.0977 11.6704L20.0977 11.6737L20.0977 11.6769L20.0977 11.6801L20.0977 11.6834L20.0977 11.6866L20.0977 11.6898L20.0977 11.6931L20.0977 11.6963L20.0977 11.6996L20.0977 11.7028L20.0977 11.7061L20.0977 11.7093L20.0977 11.7126L20.0977 11.7158L20.0977 11.7191L20.0977 11.7224L20.0977 11.7256L20.0977 11.7289Z" fill="white" stroke="white" stroke-width="0.5"/>
</svg>
