<svg width="23" height="21" viewBox="0 0 23 21" fill="none" xmlns="http://www.w3.org/2000/svg">
<path d="M0 0.984375C0 0.438867 0.427257 0 0.958333 0H2.77517C3.65365 0 4.43229 0.525 4.79566 1.3125H21.2071C22.2573 1.3125 23.024 2.33789 22.7484 3.37969L21.1113 9.62637C20.7719 10.9143 19.6339 11.8125 18.3361 11.8125H6.81615L7.03177 12.9814C7.11962 13.4449 7.51493 13.7812 7.97413 13.7812H19.4861C20.0172 13.7812 20.4444 14.2201 20.4444 14.7656C20.4444 15.3111 20.0172 15.75 19.4861 15.75H7.97413C6.59253 15.75 5.4066 14.741 5.15104 13.3506L3.09063 2.23535C3.06267 2.07949 2.9309 1.96875 2.77517 1.96875H0.958333C0.427257 1.96875 0 1.52988 0 0.984375ZM5.11111 19.0312C5.11111 18.7727 5.16069 18.5167 5.25701 18.2778C5.35333 18.039 5.49451 17.8219 5.67249 17.6391C5.85047 17.4563 6.06176 17.3113 6.2943 17.2124C6.52684 17.1134 6.77608 17.0625 7.02778 17.0625C7.27948 17.0625 7.52871 17.1134 7.76125 17.2124C7.9938 17.3113 8.20509 17.4563 8.38307 17.6391C8.56104 17.8219 8.70223 18.039 8.79855 18.2778C8.89487 18.5167 8.94444 18.7727 8.94444 19.0312C8.94444 19.2898 8.89487 19.5458 8.79855 19.7847C8.70223 20.0235 8.56104 20.2406 8.38307 20.4234C8.20509 20.6062 7.9938 20.7512 7.76125 20.8501C7.52871 20.9491 7.27948 21 7.02778 21C6.77608 21 6.52684 20.9491 6.2943 20.8501C6.06176 20.7512 5.85047 20.6062 5.67249 20.4234C5.49451 20.2406 5.35333 20.0235 5.25701 19.7847C5.16069 19.5458 5.11111 19.2898 5.11111 19.0312ZM18.5278 17.0625C19.0361 17.0625 19.5236 17.2699 19.8831 17.6391C20.2425 18.0083 20.4444 18.5091 20.4444 19.0312C20.4444 19.5534 20.2425 20.0542 19.8831 20.4234C19.5236 20.7926 19.0361 21 18.5278 21C18.0194 21 17.5319 20.7926 17.1725 20.4234C16.813 20.0542 16.6111 19.5534 16.6111 19.0312C16.6111 18.5091 16.813 18.0083 17.1725 17.6391C17.5319 17.2699 18.0194 17.0625 18.5278 17.0625Z" fill="white"/>
</svg>
