<svg width="26" height="30" viewBox="0 0 26 30" fill="none" xmlns="http://www.w3.org/2000/svg">
<path d="M8.35826 1.53544C8.35826 0.76356 8.97924 0.142578 9.75112 0.142578H16.2511C17.023 0.142578 17.644 0.76356 17.644 1.53544C17.644 2.30731 17.023 2.92829 16.2511 2.92829H14.394V5.79526C16.9127 6.08544 19.1993 7.14749 20.9984 8.74927L22.6931 7.04883C23.2386 6.50329 24.1208 6.50329 24.6605 7.04883C25.2002 7.59436 25.206 8.47651 24.6605 9.01624L22.8614 10.8153C24.2542 12.7828 25.0725 15.1854 25.0725 17.7796C25.0725 24.4479 19.6694 29.8511 13.0011 29.8511C6.33281 29.8511 0.929688 24.4537 0.929688 17.7854C0.929688 11.5872 5.59576 6.48588 11.6083 5.79526V2.92829H9.75112C8.97924 2.92829 8.35826 2.30731 8.35826 1.53544ZM13.0011 27.0711C15.4638 27.0711 17.8257 26.0928 19.5671 24.3514C21.3085 22.61 22.2868 20.2482 22.2868 17.7854C22.2868 15.3227 21.3085 12.9609 19.5671 11.2194C17.8257 9.47803 15.4638 8.49972 13.0011 8.49972C10.5384 8.49972 8.17653 9.47803 6.43512 11.2194C4.69372 12.9609 3.7154 15.3227 3.7154 17.7854C3.7154 20.2482 4.69372 22.61 6.43512 24.3514C8.17653 26.0928 10.5384 27.0711 13.0011 27.0711ZM14.394 12.6783V18.714C14.394 19.4859 13.773 20.1069 13.0011 20.1069C12.2292 20.1069 11.6083 19.4859 11.6083 18.714V12.6783C11.6083 11.9064 12.2292 11.2854 13.0011 11.2854C13.773 11.2854 14.394 11.9064 14.394 12.6783Z" fill="#4BCD3E"/>
</svg>
