<svg width="25" height="19" viewBox="0 0 25 19" fill="none" xmlns="http://www.w3.org/2000/svg">
<path d="M12.1993 0.978516C8.8203 0.978516 6.11455 2.40329 4.14483 4.09908C2.18765 5.77938 0.878689 7.79265 0.259754 9.17484C0.121749 9.4807 0.121749 9.8214 0.259754 10.1273C0.878689 11.5095 2.18765 13.5227 4.14483 15.203C6.11455 16.8988 8.8203 18.3236 12.1993 18.3236C15.5784 18.3236 18.2841 16.8988 20.2539 15.203C22.211 13.5188 23.52 11.5095 24.1431 10.1273C24.2811 9.8214 24.2811 9.4807 24.1431 9.17484C23.52 7.79265 22.211 5.77938 20.2539 4.09908C18.2841 2.40329 15.5784 0.978516 12.1993 0.978516ZM6.17728 9.65105C6.17728 8.17242 6.81174 6.75434 7.9411 5.70879C9.07046 4.66323 10.6022 4.07585 12.1993 4.07585C13.7965 4.07585 15.3282 4.66323 16.4576 5.70879C17.587 6.75434 18.2214 8.17242 18.2214 9.65105C18.2214 11.1297 17.587 12.5478 16.4576 13.5933C15.3282 14.6389 13.7965 15.2263 12.1993 15.2263C10.6022 15.2263 9.07046 14.6389 7.9411 13.5933C6.81174 12.5478 6.17728 11.1297 6.17728 9.65105ZM12.1993 7.17318C12.1993 8.53988 10.9991 9.65105 9.52287 9.65105C9.22595 9.65105 8.94157 9.60459 8.67393 9.52329C8.44392 9.4536 8.17627 9.58523 8.18463 9.80979C8.19718 10.0769 8.239 10.3441 8.31846 10.6112C8.89139 12.5935 11.0953 13.7705 13.2365 13.2401C15.3777 12.7097 16.649 10.6693 16.0761 8.68701C15.6119 7.08026 14.0771 6.00007 12.3708 5.93425C12.1283 5.92651 11.9861 6.17042 12.0613 6.38723C12.1492 6.63502 12.1993 6.89829 12.1993 7.17318Z" fill="white"/>
</svg>
