<svg width="22" height="30" viewBox="0 0 22 30" fill="none" xmlns="http://www.w3.org/2000/svg">
<path d="M3.66667 27.1875C3.1625 27.1875 2.75 26.7656 2.75 26.25V3.75C2.75 3.23438 3.1625 2.8125 3.66667 2.8125H12.8333V7.5C12.8333 8.53711 13.6526 9.375 14.6667 9.375H19.25V26.25C19.25 26.7656 18.8375 27.1875 18.3333 27.1875H3.66667ZM3.66667 0C1.64427 0 0 1.68164 0 3.75V26.25C0 28.3184 1.64427 30 3.66667 30H18.3333C20.3557 30 22 28.3184 22 26.25V9.05273C22 8.05664 21.6161 7.10156 20.9286 6.39844L15.738 1.0957C15.0505 0.392578 14.1224 0 13.1484 0H3.66667ZM6.875 15C6.11302 15 5.5 15.627 5.5 16.4062C5.5 17.1855 6.11302 17.8125 6.875 17.8125H15.125C15.887 17.8125 16.5 17.1855 16.5 16.4062C16.5 15.627 15.887 15 15.125 15H6.875ZM6.875 20.625C6.11302 20.625 5.5 21.252 5.5 22.0312C5.5 22.8105 6.11302 23.4375 6.875 23.4375H15.125C15.887 23.4375 16.5 22.8105 16.5 22.0312C16.5 21.252 15.887 20.625 15.125 20.625H6.875Z" fill="#4BCD3E"/>
</svg>
