<svg width="36" height="35" viewBox="0 0 36 35" fill="none" xmlns="http://www.w3.org/2000/svg">
<path d="M32.3247 17.6302C32.3247 13.8926 30.8399 10.308 28.197 7.66506C25.554 5.02214 21.9695 3.53736 18.2318 3.53736C14.4941 3.53736 10.9096 5.02214 8.26663 7.66506C5.6237 10.308 4.13892 13.8926 4.13892 17.6302C4.13892 21.3679 5.6237 24.9525 8.26663 27.5954C10.9096 30.2383 14.4941 31.7231 18.2318 31.7231C21.9695 31.7231 25.554 30.2383 28.197 27.5954C30.8399 24.9525 32.3247 21.3679 32.3247 17.6302ZM0.886719 17.6302C0.886719 13.03 2.71414 8.61824 5.96697 5.36541C9.2198 2.11258 13.6316 0.285156 18.2318 0.285156C22.832 0.285156 27.2438 2.11258 30.4966 5.36541C33.7494 8.61824 35.5769 13.03 35.5769 17.6302C35.5769 22.2304 33.7494 26.6422 30.4966 29.895C27.2438 33.1479 22.832 34.9753 18.2318 34.9753C13.6316 34.9753 9.2198 33.1479 5.96697 29.895C2.71414 26.6422 0.886719 22.2304 0.886719 17.6302ZM18.6044 11.1258C17.4662 11.1258 16.5447 12.0541 16.5515 13.1923L16.565 15.4621H19.3091C19.9053 15.4621 20.3931 15.9499 20.3931 16.5462C20.3931 17.1424 19.9053 17.6302 19.3091 17.6302H16.5786L16.5854 18.2874C16.5921 19.5477 16.3753 20.7943 15.9349 21.9665H23.1101C24.0112 21.9665 24.7362 22.6915 24.7362 23.5926C24.7362 24.4937 24.0112 25.2187 23.1101 25.2187H13.3535C12.7844 25.2187 12.2626 24.9206 11.9645 24.4395C11.6664 23.9585 11.6461 23.3555 11.9103 22.8473L12.5608 21.5871C13.0825 20.5775 13.3467 19.4528 13.3399 18.3145L13.3332 17.6302H12.8115C12.2152 17.6302 11.7274 17.1424 11.7274 16.5462C11.7274 15.9499 12.2152 15.4621 12.8115 15.4621H13.3196L13.3061 13.2194C13.2857 10.2721 15.6639 7.87363 18.6112 7.87363C19.2888 7.87363 19.9527 8.00236 20.5829 8.25305L22.6358 9.07287C23.4692 9.40487 23.8757 10.3534 23.5437 11.1868C23.2117 12.0202 22.2632 12.4267 21.4298 12.0947L19.3768 11.2749C19.1329 11.18 18.8755 11.1258 18.6112 11.1258H18.6044Z" fill="#4BCD3E"/>
</svg>
