<svg width="34" height="36" viewBox="0 0 34 36" fill="none" xmlns="http://www.w3.org/2000/svg">
<path d="M4.14567 9.21372L17.0039 3.78024L29.8621 9.21372C30.2767 9.38877 30.5015 9.75987 30.4945 10.11C30.4664 16.5097 27.7964 27.5657 17.4044 32.5231C17.1514 32.6421 16.8563 32.6421 16.6104 32.5231C6.21142 27.5587 3.54843 16.5097 3.5133 10.103C3.5133 9.75287 3.73112 9.38877 4.14567 9.20672V9.21372ZM31.176 6.11888L17.9454 0.524345C17.6503 0.391308 17.3341 0.321289 17.0039 0.321289C16.6736 0.321289 16.3575 0.391308 16.0624 0.524345L2.83175 6.11888C1.28595 6.77005 0.133631 8.28947 0.140657 10.124C0.175789 17.0699 3.04254 29.7783 15.1489 35.5549C16.3223 36.1151 17.6854 36.1151 18.8588 35.5549C30.9723 29.7783 33.832 17.0699 33.8671 10.124C33.8741 8.28947 32.7218 6.77005 31.176 6.11888ZM20.9386 14.8853C20.9386 12.7217 19.175 10.9642 17.0039 10.9642C14.8327 10.9642 13.0691 12.7217 13.0691 14.8853C13.0691 16.4467 13.9896 17.7981 15.3176 18.4282V23.2876C15.3176 24.2188 16.0694 24.968 17.0039 24.968C17.9384 24.968 18.6902 24.2188 18.6902 23.2876V18.4282C20.0182 17.7981 20.9386 16.4467 20.9386 14.8853Z" fill="#4BCD3E"/>
</svg>
