<svg width="36" height="42" viewBox="0 0 36 42" fill="none" xmlns="http://www.w3.org/2000/svg">
<path fill-rule="evenodd" clip-rule="evenodd" d="M15.9418 1.39497C22.4053 1.39497 25.6642 9.36437 21.0897 14.0091C16.5151 18.6538 8.66138 15.3464 8.66138 8.78428C8.66138 4.70378 11.9218 1.39453 15.9423 1.39453L15.9418 1.39497ZM30.1715 30.5192L25.477 35.2821C25.0777 35.6874 24.4289 35.6874 24.0279 35.2821L21.6807 32.8998L23.1298 31.4291L24.7525 33.076L28.7223 29.0468L30.1715 30.5192ZM25.927 23.4272C26.5454 23.4272 27.1469 23.4939 27.7283 23.6187C26.2084 21.1868 23.568 19.6477 20.6445 19.6477L11.237 19.6494C6.63012 19.6494 2.85746 23.4785 2.85746 28.1542V30.9863C2.85746 32.0141 3.68985 32.8589 4.70251 32.8589H17.3435C16.9492 27.7694 20.9076 23.4272 25.927 23.4272ZM30.5218 24.7765C29.0997 20.5267 25.135 17.5698 20.6446 17.5698H11.2371C5.49961 17.5698 0.808594 22.3309 0.808594 28.1542V30.9863C0.808594 33.1616 2.5593 34.9385 4.70259 34.9385H17.7598C19.7734 41.0507 27.474 42.9508 32.0132 38.3434C35.924 34.3758 35.1791 27.7658 30.5218 24.7765ZM30.5656 27.4581C26.4425 23.2732 19.3672 26.2524 19.3672 32.1662C19.3672 38.0801 26.444 41.059 30.5656 36.8744C33.1268 34.2732 33.1268 30.0578 30.5656 27.4581ZM19.6402 5.03052C16.3528 1.69395 10.7098 4.07111 10.7098 8.78436C10.7098 13.4995 16.3528 15.8764 19.6402 12.5382C21.6841 10.4655 21.6841 7.1031 19.6402 5.03052Z" fill="#4BCD3E" stroke="#4BCD3E"/>
</svg>
