<svg width="36" height="33" viewBox="0 0 36 33" fill="none" xmlns="http://www.w3.org/2000/svg">
<path d="M6.28168 11.2581C8.21855 6.78633 12.7355 3.65609 17.9896 3.65609C20.8588 3.65609 23.6123 4.77758 25.6431 6.77214L25.9394 7.06316L23.3593 9.59716C22.8824 10.0656 22.615 10.7045 22.615 11.3717C22.615 12.7558 23.7568 13.8773 25.1661 13.8773H33.6002C34.5614 13.8773 35.3347 13.1178 35.3347 12.1738V3.89033C35.3347 2.50621 34.1928 1.38471 32.7835 1.38471C32.1042 1.38471 31.4609 1.64734 30.9767 2.11581L28.3966 4.65692L28.1003 4.3659C25.4191 1.72542 21.7838 0.249023 17.9896 0.249023C11.2973 0.249023 5.55174 4.23813 3.0873 9.92368C2.71149 10.7896 3.12343 11.7905 4.00514 12.1596C4.88685 12.5287 5.90587 12.1241 6.28168 11.2581ZM32.8775 22.4021C33.2533 21.5361 32.8485 20.5353 31.9668 20.1662C31.0851 19.7971 30.0661 20.1946 29.6903 21.0605C27.7462 25.5252 23.2365 28.6413 17.9896 28.6413C15.1204 28.6413 12.3669 27.5198 10.3361 25.5252L10.0398 25.2342L12.6199 22.7002C13.0968 22.2317 13.3643 21.5929 13.3643 20.9257C13.3643 19.5415 12.2224 18.42 10.8131 18.42H2.37904C1.41783 18.42 0.644531 19.1795 0.644531 20.1236V28.407C0.644531 29.7911 1.78642 30.9126 3.1957 30.9126C3.87505 30.9126 4.51826 30.65 5.00248 30.1815L7.58256 27.6404L7.87887 27.9314C10.5601 30.5719 14.1954 32.0483 17.9896 32.0483C24.6747 32.0483 30.4058 28.0734 32.8775 22.4021ZM31.8657 10.4702H27.3776L31.8657 6.06233V10.4702ZM4.11355 21.8271H8.60158L4.11355 26.235V21.8271Z" fill="#4BCD3E"/>
</svg>
