<svg width="58" height="46" viewBox="0 0 58 46" fill="none" xmlns="http://www.w3.org/2000/svg">
<path d="M5.8 8.625V14.375C5.8 15.9652 4.50406 17.25 2.9 17.25C1.29594 17.25 0 15.9652 0 14.375V8.625C0 3.86328 3.89688 0 8.7 0H49.3C54.1031 0 58 3.86328 58 8.625V14.375C58 15.9652 56.7041 17.25 55.1 17.25C53.4959 17.25 52.2 15.9652 52.2 14.375V8.625C52.2 7.03477 50.9041 5.75 49.3 5.75H8.7C7.09594 5.75 5.8 7.03477 5.8 8.625ZM11.6 8.625H46.4V40.25C46.4 43.4215 43.7991 46 40.6 46H17.4C14.2009 46 11.6 43.4215 11.6 40.25V8.625ZM23.2 40.25C23.2 37.0785 20.5991 34.5 17.4 34.5V40.25H23.2ZM40.6 34.5C37.4009 34.5 34.8 37.0785 34.8 40.25H40.6V34.5ZM29 31.625C33.8031 31.625 37.7 28.4086 37.7 24.4375C37.7 20.4664 33.8031 17.25 29 17.25C24.1969 17.25 20.3 20.4664 20.3 24.4375C20.3 28.4086 24.1969 31.625 29 31.625Z" fill="#583BEC"/>
</svg>
