<svg width="24" height="16" viewBox="0 0 24 16" fill="none" xmlns="http://www.w3.org/2000/svg">
<path fill-rule="evenodd" clip-rule="evenodd" d="M10.9487 0.0715778C11.0952 0.00869282 11.2612 0.00869282 11.4079 0.0715778L21.1282 4.24003C21.3426 4.33194 21.4816 4.5428 21.4816 4.77611C21.4816 5.00942 21.3426 5.22028 21.1282 5.31219L11.4079 9.48061C11.2612 9.54348 11.0952 9.54348 10.9487 9.48061L1.22827 5.31219C1.01396 5.22028 0.875 5.00942 0.875 4.77611C0.875 4.5428 1.01396 4.33194 1.22827 4.24003L10.9487 0.0715778ZM2.93758 4.77611L11.1782 8.31005L19.419 4.77611L11.1782 1.2422L2.93758 4.77611Z" fill="#575757"/>
<path fill-rule="evenodd" clip-rule="evenodd" d="M5.16101 6.27734C5.48292 6.27734 5.74389 6.5384 5.74389 6.86058V10.0775C5.74389 10.513 6.0047 10.9059 6.40579 11.075C9.35911 12.3192 12.6891 12.3192 15.6424 11.075C16.0435 10.9059 16.3043 10.513 16.3043 10.0775V6.86058C16.3043 6.5384 16.5652 6.27734 16.8872 6.27734C17.2091 6.27734 17.4701 6.5384 17.4701 6.86058V10.0775C17.4701 10.9822 16.9281 11.799 16.0948 12.1501C12.8521 13.5162 9.19601 13.5162 5.95341 12.1501C5.12004 11.799 4.57812 10.9822 4.57812 10.0775V6.86058C4.57812 6.5384 4.83909 6.27734 5.16101 6.27734Z" fill="#575757"/>
<path fill-rule="evenodd" clip-rule="evenodd" d="M10.5977 4.77562C10.5977 4.4535 10.8587 4.19238 11.1805 4.19238H19.9753C20.9789 4.19238 21.7925 5.00648 21.7925 6.0107V11.1826C21.7925 11.5048 21.5314 11.7659 21.2096 11.7659C20.8876 11.7659 20.6267 11.5048 20.6267 11.1826V6.0107C20.6267 5.65073 20.335 5.35887 19.9753 5.35887H11.1805C10.8587 5.35887 10.5977 5.09774 10.5977 4.77562Z" fill="#575757"/>
<path fill-rule="evenodd" clip-rule="evenodd" d="M19.5469 12.5732C19.5469 11.6116 20.326 10.832 21.287 10.832C22.2479 10.832 23.027 11.6116 23.027 12.5732V13.7311C23.027 14.6927 22.2479 15.4723 21.287 15.4723C20.326 15.4723 19.5469 14.6927 19.5469 13.7311V12.5732ZM21.287 11.9985C20.9698 11.9985 20.7126 12.2558 20.7126 12.5732V13.7311C20.7126 14.0485 20.9698 14.3058 21.287 14.3058C21.6041 14.3058 21.8613 14.0485 21.8613 13.7311V12.5732C21.8613 12.2558 21.6041 11.9985 21.287 11.9985Z" fill="#575757"/>
</svg>
