<svg width="47" height="50" viewBox="0 0 47 50" fill="none" xmlns="http://www.w3.org/2000/svg">
<path d="M24.7461 0.283203C24.336 0.0976563 23.8965 0 23.4375 0C22.9786 0 22.5391 0.0976563 22.129 0.283203L3.74028 8.08594C1.59184 8.99414 -0.00972121 11.1133 4.44189e-05 13.6719C0.0488725 23.3594 4.03325 41.084 20.8594 49.1406C22.4903 49.9219 24.3848 49.9219 26.0157 49.1406C42.8418 41.084 46.8262 23.3594 46.875 13.6719C46.8848 11.1133 45.2832 8.99414 43.1348 8.08594L24.7461 0.283203ZM34.4727 20.4102L21.9727 32.9102C21.0547 33.8281 19.5704 33.8281 18.6622 32.9102L12.4122 26.6602C11.4942 25.7422 11.4942 24.2578 12.4122 23.3496C13.3301 22.4414 14.8145 22.4316 15.7227 23.3496L20.3125 27.9395L31.1524 17.0898C32.0704 16.1719 33.5547 16.1719 34.4629 17.0898C35.3711 18.0078 35.3809 19.4922 34.4629 20.4004L34.4727 20.4102Z" fill="#583BEC"/>
</svg>
