<svg width="47" height="46" viewBox="0 0 47 46" fill="none" xmlns="http://www.w3.org/2000/svg">
<path d="M0 20.1248C0 21.7151 1.3127 23 2.9375 23C4.5623 23 5.875 21.7151 5.875 20.1248C5.875 15.3626 9.82227 11.499 14.6875 11.499H29.375V14.3743C29.375 15.5333 30.091 16.5846 31.1926 17.0339C32.2941 17.4831 33.5518 17.2315 34.3963 16.4139L40.2713 10.6634C41.4188 9.54024 41.4188 7.71625 40.2713 6.59311L34.3963 0.842608C33.5518 0.0159736 32.2941 -0.226626 31.1926 0.222632C30.091 0.67189 29.375 1.71417 29.375 2.87325V5.7485H14.6875C6.57266 5.7485 0 12.1819 0 20.1248ZM47 25.8752C47 24.2849 45.6873 23 44.0625 23C42.4377 23 41.125 24.2849 41.125 25.8752C41.125 30.6374 37.1777 34.501 32.3125 34.501H17.625V31.6257C17.625 30.4667 16.909 29.4154 15.8074 28.9661C14.7059 28.5169 13.4482 28.7685 12.6037 29.5861L6.72871 35.3366C5.58125 36.4598 5.58125 38.2837 6.72871 39.4069L12.6037 45.1574C13.4482 45.984 14.7059 46.2266 15.8074 45.7774C16.909 45.3281 17.625 44.2858 17.625 43.1178V40.2425H32.3125C40.4273 40.2425 47 33.8091 47 25.8663V25.8752Z" fill="#583BEC"/>
</svg>
