<svg width="58" height="46" viewBox="0 0 58 46" fill="none" xmlns="http://www.w3.org/2000/svg">
<path d="M40.6181 3.08164C40.5003 4.85156 41.1166 6.65742 42.4759 8.01406L47.5056 13.0273C48.3394 13.8629 49.4178 14.3031 50.5144 14.366C51.6019 17.0344 52.2 19.9453 52.2 23C52.2 26.3602 51.475 29.5586 50.1609 32.4426C47.7141 31.077 44.5513 31.4273 42.4759 33.5027C40.1378 35.8387 39.9837 39.5312 42.0319 42.0289C38.3162 44.5355 33.8303 46 29 46C23.4447 46 18.3425 44.0594 14.3459 40.825L15.5331 39.648C18.0344 37.1594 18.0344 33.1254 15.5331 30.6277C13.2856 28.3816 9.76937 28.148 7.25906 29.9359C7.105 29.8281 6.94188 29.7203 6.78781 29.6305C6.14438 27.5371 5.8 25.309 5.8 23C5.8 10.2961 16.1856 0 29 0C33.2322 0 37.2016 1.12305 40.6181 3.08164ZM18.6234 29.1004C18.0163 29.6215 17.9528 30.5289 18.4784 31.1309C20.4903 33.4398 24.0066 35.9375 29 35.9375C33.9934 35.9375 37.5006 33.4309 39.5216 31.1309C40.0472 30.5289 39.9838 29.6215 39.3766 29.1004C38.7694 28.5793 37.8541 28.6422 37.3284 29.2441C35.7062 31.1039 32.9331 33.0625 29 33.0625C25.0669 33.0625 22.2938 31.1039 20.6716 29.2441C20.1459 28.6422 19.2306 28.5793 18.6234 29.1004ZM18.56 20.9875C20.155 18.8762 23.345 18.8762 24.94 20.9875C25.4203 21.6254 26.3266 21.7512 26.97 21.275C27.6134 20.7988 27.7403 19.9004 27.26 19.2625C24.505 15.6238 18.995 15.6238 16.24 19.2625C15.7597 19.9004 15.8866 20.7988 16.53 21.275C17.1734 21.7512 18.0797 21.6254 18.56 20.9875ZM39.44 20.9875C39.9203 21.6254 40.8266 21.7512 41.47 21.275C42.1134 20.7988 42.2403 19.9004 41.76 19.2625C39.005 15.6238 33.495 15.6238 30.74 19.2625C30.2597 19.9004 30.3866 20.7988 31.03 21.275C31.6734 21.7512 32.5797 21.6254 33.06 20.9875C34.655 18.8762 37.845 18.8762 39.44 20.9875ZM51.9916 1.0332C53.3691 -0.341406 55.5984 -0.341406 56.9669 1.0332C58.3353 2.40781 58.3444 4.62695 56.9669 5.99258L51.9463 11.0059C51.2847 11.6617 50.2153 11.6617 49.5628 11.0059L44.5331 5.99258C43.1556 4.61797 43.1556 2.39883 44.5331 1.0332C45.9106 -0.332422 48.14 -0.341406 49.5084 1.0332L50.75 2.27305L51.9916 1.0332ZM56.9669 35.5332C58.3444 36.9078 58.3444 39.127 56.9669 40.4926L51.9463 45.5059C51.2847 46.1617 50.2153 46.1617 49.5628 45.5059L44.5331 40.4926C43.1556 39.118 43.1556 36.8988 44.5331 35.5332C45.9106 34.1676 48.14 34.1586 49.5084 35.5332L50.75 36.773L51.9916 35.5332C53.3691 34.1586 55.5984 34.1586 56.9669 35.5332ZM8.49156 32.6582C9.86906 31.2836 12.0984 31.2836 13.4669 32.6582C14.8353 34.0328 14.8444 36.252 13.4669 37.6176L8.44625 42.6309C7.78469 43.2867 6.71531 43.2867 6.06281 42.6309L1.03313 37.6176C-0.344375 36.243 -0.344375 34.0238 1.03313 32.6582C2.41062 31.2926 4.64 31.2836 6.00844 32.6582L7.25 33.898L8.49156 32.6582Z" fill="#583BEC"/>
</svg>
