<svg width="58" height="41" viewBox="0 0 58 41" fill="none" xmlns="http://www.w3.org/2000/svg">
<path d="M29.0007 0C28.2667 0 27.5417 0.1281 26.8529 0.37515L1.43324 9.64409C0.572319 9.96434 0.00139489 10.7878 0.00139489 11.712C0.00139489 12.6361 0.572319 13.4596 1.43324 13.7799L6.6803 15.6922C5.19408 18.0529 4.35129 20.8437 4.35129 23.7808V26.352C4.35129 28.9506 3.37256 31.6315 2.3304 33.7452C1.74135 34.9347 1.07074 36.1059 0.291388 37.1856C0.00139489 37.579 -0.0801656 38.0914 0.0829554 38.5581C0.246076 39.0247 0.626692 39.3724 1.09793 39.4914L6.89779 40.9554C7.27841 41.056 7.68621 40.9828 8.02151 40.7724C8.35682 40.5619 8.59244 40.2142 8.66494 39.8208C9.44429 35.9046 9.05461 32.391 8.47463 29.8747C8.18464 28.5754 7.79496 27.2487 7.25122 26.0317V23.7808C7.25122 21.0175 8.17557 18.4098 9.7796 16.3236C10.9486 14.9053 12.462 13.7616 14.2382 13.057L28.466 7.41149C29.2091 7.11869 30.0519 7.48469 30.3419 8.23499C30.6319 8.98529 30.2694 9.83624 29.5263 10.129L15.2985 15.7746C14.1748 16.2229 13.187 16.9092 12.3805 17.751L26.8439 23.0214C27.5326 23.2684 28.2576 23.3965 28.9916 23.3965C29.7257 23.3965 30.4507 23.2684 31.1394 23.0214L56.5682 13.7799C57.4291 13.4688 58 12.6361 58 11.712C58 10.7878 57.4291 9.96434 56.5682 9.64409L31.1485 0.37515C30.4597 0.1281 29.7347 0 29.0007 0ZM11.6011 34.404C11.6011 37.6339 19.3947 40.992 29.0007 40.992C38.6067 40.992 46.4003 37.6339 46.4003 34.404L45.0137 21.0999L32.1272 25.803C31.1213 26.169 30.061 26.352 29.0007 26.352C27.9404 26.352 26.8711 26.169 25.8742 25.803L12.9876 21.0999L11.6011 34.404Z" fill="#583BEC"/>
</svg>
