<svg width="42" height="51" viewBox="0 0 42 51" fill="none" xmlns="http://www.w3.org/2000/svg">
<path d="M16.2846 0C14.5462 0 13.1417 1.42441 13.1417 3.1875C13.1417 4.95059 14.5462 6.375 16.2846 6.375H17.856V9.80156C8.06406 11.3355 0.570312 19.9219 0.570312 30.2812C0.570312 41.7264 9.71406 51 20.9989 51C32.2837 51 41.4275 41.7264 41.4275 30.2812C41.4275 26.1176 40.2194 22.2428 38.1373 19.0055L40.5042 16.6049C41.7319 15.3598 41.7319 13.3377 40.5042 12.0926C39.2766 10.8475 37.2828 10.8475 36.0551 12.0926L33.9337 14.2441C31.1739 11.9531 27.8248 10.3793 24.1417 9.80156V6.375H25.7132C27.4516 6.375 28.856 4.95059 28.856 3.1875C28.856 1.42441 27.4516 0 25.7132 0H20.9989H16.2846ZM23.356 19.125V31.875C23.356 33.1998 22.3051 34.2656 20.9989 34.2656C19.6926 34.2656 18.6417 33.1998 18.6417 31.875V19.125C18.6417 17.8002 19.6926 16.7344 20.9989 16.7344C22.3051 16.7344 23.356 17.8002 23.356 19.125Z" fill="#583BEC"/>
</svg>
