<svg width="34" height="36" viewBox="0 0 34 36" fill="none" xmlns="http://www.w3.org/2000/svg">
<path d="M4.13281 8.92969L17 3.47344L29.8672 8.92969C30.282 9.10547 30.507 9.47813 30.5 9.82969C30.4719 16.2563 27.8 27.3586 17.4008 32.3367C17.1477 32.4562 16.8523 32.4562 16.6063 32.3367C6.2 27.3516 3.53516 16.2563 3.5 9.82266C3.5 9.47109 3.71797 9.10547 4.13281 8.92266V8.92969ZM31.182 5.82188L17.9422 0.203906C17.6469 0.0703125 17.3305 0 17 0C16.6695 0 16.3531 0.0703125 16.0578 0.203906L2.81797 5.82188C1.2711 6.47578 0.11797 8.00156 0.125001 9.84375C0.160158 16.8188 3.02891 29.5805 15.1438 35.3813C16.318 35.9438 17.682 35.9438 18.8563 35.3813C30.9781 29.5805 33.8398 16.8188 33.875 9.84375C33.882 8.00156 32.7289 6.47578 31.182 5.82188ZM9.125 15.5602C9.125 16.6992 9.58203 17.7961 10.3836 18.6047L16.1984 24.4195C16.6344 24.8555 17.3516 24.8555 17.7875 24.4195L23.6023 18.6047C24.4109 17.7961 24.8609 16.6992 24.8609 15.5602C24.8609 13.1836 22.9344 11.25 20.5508 11.25C19.4117 11.25 18.3148 11.707 17.5063 12.5086L16.9859 13.0289L16.4656 12.5086C15.657 11.7 14.5602 11.25 13.4211 11.25C11.0445 11.25 9.11094 13.1766 9.11094 15.5602H9.125Z" fill="#583BEC"/>
</svg>
