<svg width="19" height="19" viewBox="0 0 19 19" fill="none" xmlns="http://www.w3.org/2000/svg">
<path fill-rule="evenodd" clip-rule="evenodd" d="M7.41985 1.31603C7.84784 0.784931 8.50553 0.443359 9.24244 0.443359C9.97945 0.443359 10.6371 0.78494 11.065 1.31604C11.1985 1.48164 11.3115 1.55484 11.3925 1.57652C11.4716 1.5977 11.6016 1.59128 11.8021 1.51379C12.4382 1.26787 13.1785 1.30107 13.8168 1.66981C14.4565 2.0394 14.8558 2.66637 14.9599 3.34226C14.9923 3.55242 15.0522 3.66911 15.1098 3.72675C15.1674 3.78439 15.284 3.84434 15.494 3.87671C16.1695 3.98087 16.7961 4.38037 17.1655 5.02053C17.534 5.65921 17.5672 6.40002 17.3214 7.03647C17.2439 7.23703 17.2376 7.3672 17.2587 7.44632C17.2804 7.52737 17.3535 7.64044 17.519 7.77397C18.0498 8.20224 18.3911 8.86033 18.3911 9.5977C18.3911 10.3352 18.0498 10.9932 17.519 11.4214C17.3535 11.5549 17.2804 11.668 17.2587 11.7491C17.2376 11.8282 17.2439 11.9583 17.3214 12.1589C17.5672 12.7953 17.534 13.5362 17.1655 14.1749C16.7961 14.815 16.1695 15.2146 15.494 15.3187C15.284 15.3511 15.1674 15.411 15.1098 15.4687C15.0522 15.5263 14.9923 15.643 14.9599 15.8531C14.8558 16.529 14.4566 17.156 13.8168 17.5256C13.1785 17.8943 12.4382 17.9276 11.8021 17.6816C11.6017 17.6041 11.4716 17.5977 11.3925 17.6189C11.3115 17.6406 11.1985 17.7137 11.065 17.8794C10.637 18.4105 9.97936 18.752 9.24244 18.752C8.50544 18.752 7.84776 18.4105 7.41983 17.8794C7.28639 17.7137 7.1734 17.6406 7.09241 17.6189C7.01334 17.5977 6.88326 17.6041 6.68283 17.6816C6.04676 17.9276 5.3064 17.8943 4.6681 17.5256C4.02833 17.156 3.62906 16.529 3.52499 15.8531C3.49263 15.643 3.43272 15.5263 3.37513 15.4687C3.31754 15.411 3.20093 15.3511 2.99092 15.3187C2.31541 15.2146 1.68881 14.8151 1.31945 14.1749C0.950919 13.5362 0.917745 12.7954 1.16353 12.159C1.24097 11.9583 1.24738 11.8282 1.22622 11.7491C1.20455 11.668 1.1314 11.555 0.965914 11.4215C0.435128 10.9932 0.09375 10.3352 0.09375 9.5977C0.09375 8.86033 0.43512 8.20224 0.965889 7.77399C1.13138 7.64048 1.20454 7.52741 1.22621 7.44636C1.24737 7.36724 1.24095 7.23707 1.16351 7.03651C0.917737 6.40006 0.95091 5.65925 1.31943 5.02056C1.68879 4.38041 2.31536 3.9809 2.99085 3.87674C3.20088 3.84436 3.31749 3.78441 3.37509 3.72677C3.4327 3.66914 3.4926 3.55245 3.52497 3.34229C3.62906 2.66638 4.02832 2.03942 4.66807 1.66982C5.30636 1.30107 6.0467 1.26788 6.68276 1.51379C6.8832 1.59129 7.0133 1.5977 7.09238 1.57653C7.17339 1.55484 7.28639 1.48164 7.41985 1.31603ZM13.0979 7.49461C13.3472 7.2452 13.3472 6.84081 13.0979 6.59139C12.8486 6.34198 12.4446 6.34198 12.1953 6.59139L7.54036 11.2491L6.28961 9.99768C6.04035 9.74826 5.63621 9.74826 5.38695 9.99768C5.13768 10.2471 5.13768 10.6514 5.38695 10.9009L7.08903 12.604C7.33829 12.8534 7.7424 12.8534 7.99167 12.604L13.0979 7.49461Z" fill="#4BCD3E"/>
</svg>
